G04 #@! TF.GenerationSoftware,KiCad,Pcbnew,5.1.5+dfsg1-2build2*
G04 #@! TF.CreationDate,2023-01-27T18:25:32+01:00*
G04 #@! TF.ProjectId,rp2040-launchpad-PCB,72703230-3430-42d6-9c61-756e63687061,rev?*
G04 #@! TF.SameCoordinates,Original*
G04 #@! TF.FileFunction,Soldermask,Bot*
G04 #@! TF.FilePolarity,Negative*
%FSLAX46Y46*%
G04 Gerber Fmt 4.6, Leading zero omitted, Abs format (unit mm)*
G04 Created by KiCad (PCBNEW 5.1.5+dfsg1-2build2) date 2023-01-27 18:25:32*
%MOMM*%
%LPD*%
G04 APERTURE LIST*
%ADD10C,0.100000*%
G04 APERTURE END LIST*
D10*
G36*
X162673512Y-148963927D02*
G01*
X162822812Y-148993624D01*
X162986784Y-149061544D01*
X163134354Y-149160147D01*
X163259853Y-149285646D01*
X163358456Y-149433216D01*
X163426376Y-149597188D01*
X163461000Y-149771259D01*
X163461000Y-149948741D01*
X163426376Y-150122812D01*
X163358456Y-150286784D01*
X163259853Y-150434354D01*
X163134354Y-150559853D01*
X162986784Y-150658456D01*
X162822812Y-150726376D01*
X162673512Y-150756073D01*
X162648742Y-150761000D01*
X162471258Y-150761000D01*
X162446488Y-150756073D01*
X162297188Y-150726376D01*
X162133216Y-150658456D01*
X161985646Y-150559853D01*
X161860147Y-150434354D01*
X161761544Y-150286784D01*
X161693624Y-150122812D01*
X161659000Y-149948741D01*
X161659000Y-149771259D01*
X161693624Y-149597188D01*
X161761544Y-149433216D01*
X161860147Y-149285646D01*
X161985646Y-149160147D01*
X162133216Y-149061544D01*
X162297188Y-148993624D01*
X162446488Y-148963927D01*
X162471258Y-148959000D01*
X162648742Y-148959000D01*
X162673512Y-148963927D01*
G37*
G36*
X160133512Y-148963927D02*
G01*
X160282812Y-148993624D01*
X160446784Y-149061544D01*
X160594354Y-149160147D01*
X160719853Y-149285646D01*
X160818456Y-149433216D01*
X160886376Y-149597188D01*
X160921000Y-149771259D01*
X160921000Y-149948741D01*
X160886376Y-150122812D01*
X160818456Y-150286784D01*
X160719853Y-150434354D01*
X160594354Y-150559853D01*
X160446784Y-150658456D01*
X160282812Y-150726376D01*
X160133512Y-150756073D01*
X160108742Y-150761000D01*
X159931258Y-150761000D01*
X159906488Y-150756073D01*
X159757188Y-150726376D01*
X159593216Y-150658456D01*
X159445646Y-150559853D01*
X159320147Y-150434354D01*
X159221544Y-150286784D01*
X159153624Y-150122812D01*
X159119000Y-149948741D01*
X159119000Y-149771259D01*
X159153624Y-149597188D01*
X159221544Y-149433216D01*
X159320147Y-149285646D01*
X159445646Y-149160147D01*
X159593216Y-149061544D01*
X159757188Y-148993624D01*
X159906488Y-148963927D01*
X159931258Y-148959000D01*
X160108742Y-148959000D01*
X160133512Y-148963927D01*
G37*
G36*
X140601000Y-150761000D02*
G01*
X138799000Y-150761000D01*
X138799000Y-148959000D01*
X140601000Y-148959000D01*
X140601000Y-150761000D01*
G37*
G36*
X142353512Y-148963927D02*
G01*
X142502812Y-148993624D01*
X142666784Y-149061544D01*
X142814354Y-149160147D01*
X142939853Y-149285646D01*
X143038456Y-149433216D01*
X143106376Y-149597188D01*
X143141000Y-149771259D01*
X143141000Y-149948741D01*
X143106376Y-150122812D01*
X143038456Y-150286784D01*
X142939853Y-150434354D01*
X142814354Y-150559853D01*
X142666784Y-150658456D01*
X142502812Y-150726376D01*
X142353512Y-150756073D01*
X142328742Y-150761000D01*
X142151258Y-150761000D01*
X142126488Y-150756073D01*
X141977188Y-150726376D01*
X141813216Y-150658456D01*
X141665646Y-150559853D01*
X141540147Y-150434354D01*
X141441544Y-150286784D01*
X141373624Y-150122812D01*
X141339000Y-149948741D01*
X141339000Y-149771259D01*
X141373624Y-149597188D01*
X141441544Y-149433216D01*
X141540147Y-149285646D01*
X141665646Y-149160147D01*
X141813216Y-149061544D01*
X141977188Y-148993624D01*
X142126488Y-148963927D01*
X142151258Y-148959000D01*
X142328742Y-148959000D01*
X142353512Y-148963927D01*
G37*
G36*
X144893512Y-148963927D02*
G01*
X145042812Y-148993624D01*
X145206784Y-149061544D01*
X145354354Y-149160147D01*
X145479853Y-149285646D01*
X145578456Y-149433216D01*
X145646376Y-149597188D01*
X145681000Y-149771259D01*
X145681000Y-149948741D01*
X145646376Y-150122812D01*
X145578456Y-150286784D01*
X145479853Y-150434354D01*
X145354354Y-150559853D01*
X145206784Y-150658456D01*
X145042812Y-150726376D01*
X144893512Y-150756073D01*
X144868742Y-150761000D01*
X144691258Y-150761000D01*
X144666488Y-150756073D01*
X144517188Y-150726376D01*
X144353216Y-150658456D01*
X144205646Y-150559853D01*
X144080147Y-150434354D01*
X143981544Y-150286784D01*
X143913624Y-150122812D01*
X143879000Y-149948741D01*
X143879000Y-149771259D01*
X143913624Y-149597188D01*
X143981544Y-149433216D01*
X144080147Y-149285646D01*
X144205646Y-149160147D01*
X144353216Y-149061544D01*
X144517188Y-148993624D01*
X144666488Y-148963927D01*
X144691258Y-148959000D01*
X144868742Y-148959000D01*
X144893512Y-148963927D01*
G37*
G36*
X147433512Y-148963927D02*
G01*
X147582812Y-148993624D01*
X147746784Y-149061544D01*
X147894354Y-149160147D01*
X148019853Y-149285646D01*
X148118456Y-149433216D01*
X148186376Y-149597188D01*
X148221000Y-149771259D01*
X148221000Y-149948741D01*
X148186376Y-150122812D01*
X148118456Y-150286784D01*
X148019853Y-150434354D01*
X147894354Y-150559853D01*
X147746784Y-150658456D01*
X147582812Y-150726376D01*
X147433512Y-150756073D01*
X147408742Y-150761000D01*
X147231258Y-150761000D01*
X147206488Y-150756073D01*
X147057188Y-150726376D01*
X146893216Y-150658456D01*
X146745646Y-150559853D01*
X146620147Y-150434354D01*
X146521544Y-150286784D01*
X146453624Y-150122812D01*
X146419000Y-149948741D01*
X146419000Y-149771259D01*
X146453624Y-149597188D01*
X146521544Y-149433216D01*
X146620147Y-149285646D01*
X146745646Y-149160147D01*
X146893216Y-149061544D01*
X147057188Y-148993624D01*
X147206488Y-148963927D01*
X147231258Y-148959000D01*
X147408742Y-148959000D01*
X147433512Y-148963927D01*
G37*
G36*
X149973512Y-148963927D02*
G01*
X150122812Y-148993624D01*
X150286784Y-149061544D01*
X150434354Y-149160147D01*
X150559853Y-149285646D01*
X150658456Y-149433216D01*
X150726376Y-149597188D01*
X150761000Y-149771259D01*
X150761000Y-149948741D01*
X150726376Y-150122812D01*
X150658456Y-150286784D01*
X150559853Y-150434354D01*
X150434354Y-150559853D01*
X150286784Y-150658456D01*
X150122812Y-150726376D01*
X149973512Y-150756073D01*
X149948742Y-150761000D01*
X149771258Y-150761000D01*
X149746488Y-150756073D01*
X149597188Y-150726376D01*
X149433216Y-150658456D01*
X149285646Y-150559853D01*
X149160147Y-150434354D01*
X149061544Y-150286784D01*
X148993624Y-150122812D01*
X148959000Y-149948741D01*
X148959000Y-149771259D01*
X148993624Y-149597188D01*
X149061544Y-149433216D01*
X149160147Y-149285646D01*
X149285646Y-149160147D01*
X149433216Y-149061544D01*
X149597188Y-148993624D01*
X149746488Y-148963927D01*
X149771258Y-148959000D01*
X149948742Y-148959000D01*
X149973512Y-148963927D01*
G37*
G36*
X152513512Y-148963927D02*
G01*
X152662812Y-148993624D01*
X152826784Y-149061544D01*
X152974354Y-149160147D01*
X153099853Y-149285646D01*
X153198456Y-149433216D01*
X153266376Y-149597188D01*
X153301000Y-149771259D01*
X153301000Y-149948741D01*
X153266376Y-150122812D01*
X153198456Y-150286784D01*
X153099853Y-150434354D01*
X152974354Y-150559853D01*
X152826784Y-150658456D01*
X152662812Y-150726376D01*
X152513512Y-150756073D01*
X152488742Y-150761000D01*
X152311258Y-150761000D01*
X152286488Y-150756073D01*
X152137188Y-150726376D01*
X151973216Y-150658456D01*
X151825646Y-150559853D01*
X151700147Y-150434354D01*
X151601544Y-150286784D01*
X151533624Y-150122812D01*
X151499000Y-149948741D01*
X151499000Y-149771259D01*
X151533624Y-149597188D01*
X151601544Y-149433216D01*
X151700147Y-149285646D01*
X151825646Y-149160147D01*
X151973216Y-149061544D01*
X152137188Y-148993624D01*
X152286488Y-148963927D01*
X152311258Y-148959000D01*
X152488742Y-148959000D01*
X152513512Y-148963927D01*
G37*
G36*
X155053512Y-148963927D02*
G01*
X155202812Y-148993624D01*
X155366784Y-149061544D01*
X155514354Y-149160147D01*
X155639853Y-149285646D01*
X155738456Y-149433216D01*
X155806376Y-149597188D01*
X155841000Y-149771259D01*
X155841000Y-149948741D01*
X155806376Y-150122812D01*
X155738456Y-150286784D01*
X155639853Y-150434354D01*
X155514354Y-150559853D01*
X155366784Y-150658456D01*
X155202812Y-150726376D01*
X155053512Y-150756073D01*
X155028742Y-150761000D01*
X154851258Y-150761000D01*
X154826488Y-150756073D01*
X154677188Y-150726376D01*
X154513216Y-150658456D01*
X154365646Y-150559853D01*
X154240147Y-150434354D01*
X154141544Y-150286784D01*
X154073624Y-150122812D01*
X154039000Y-149948741D01*
X154039000Y-149771259D01*
X154073624Y-149597188D01*
X154141544Y-149433216D01*
X154240147Y-149285646D01*
X154365646Y-149160147D01*
X154513216Y-149061544D01*
X154677188Y-148993624D01*
X154826488Y-148963927D01*
X154851258Y-148959000D01*
X155028742Y-148959000D01*
X155053512Y-148963927D01*
G37*
G36*
X157593512Y-148963927D02*
G01*
X157742812Y-148993624D01*
X157906784Y-149061544D01*
X158054354Y-149160147D01*
X158179853Y-149285646D01*
X158278456Y-149433216D01*
X158346376Y-149597188D01*
X158381000Y-149771259D01*
X158381000Y-149948741D01*
X158346376Y-150122812D01*
X158278456Y-150286784D01*
X158179853Y-150434354D01*
X158054354Y-150559853D01*
X157906784Y-150658456D01*
X157742812Y-150726376D01*
X157593512Y-150756073D01*
X157568742Y-150761000D01*
X157391258Y-150761000D01*
X157366488Y-150756073D01*
X157217188Y-150726376D01*
X157053216Y-150658456D01*
X156905646Y-150559853D01*
X156780147Y-150434354D01*
X156681544Y-150286784D01*
X156613624Y-150122812D01*
X156579000Y-149948741D01*
X156579000Y-149771259D01*
X156613624Y-149597188D01*
X156681544Y-149433216D01*
X156780147Y-149285646D01*
X156905646Y-149160147D01*
X157053216Y-149061544D01*
X157217188Y-148993624D01*
X157366488Y-148963927D01*
X157391258Y-148959000D01*
X157568742Y-148959000D01*
X157593512Y-148963927D01*
G37*
G36*
X125488212Y-147804249D02*
G01*
X125582651Y-147832897D01*
X125669687Y-147879418D01*
X125745975Y-147942025D01*
X125808582Y-148018313D01*
X125855103Y-148105348D01*
X125883751Y-148199787D01*
X125891000Y-148273388D01*
X125891000Y-148972612D01*
X125883751Y-149046213D01*
X125855103Y-149140652D01*
X125808582Y-149227687D01*
X125745975Y-149303975D01*
X125669687Y-149366582D01*
X125582652Y-149413103D01*
X125488213Y-149441751D01*
X125390000Y-149451424D01*
X125291788Y-149441751D01*
X125197349Y-149413103D01*
X125110314Y-149366582D01*
X125034026Y-149303975D01*
X124971419Y-149227687D01*
X124924898Y-149140652D01*
X124896250Y-149046213D01*
X124889001Y-148972612D01*
X124889000Y-148972602D01*
X124889000Y-148273389D01*
X124896249Y-148199788D01*
X124924897Y-148105349D01*
X124971418Y-148018313D01*
X125034025Y-147942025D01*
X125110313Y-147879418D01*
X125197348Y-147832897D01*
X125291787Y-147804249D01*
X125390000Y-147794576D01*
X125488212Y-147804249D01*
G37*
G36*
X118488212Y-147804249D02*
G01*
X118582651Y-147832897D01*
X118669687Y-147879418D01*
X118745975Y-147942025D01*
X118808582Y-148018313D01*
X118855103Y-148105348D01*
X118883751Y-148199787D01*
X118891000Y-148273388D01*
X118891000Y-148972612D01*
X118883751Y-149046213D01*
X118855103Y-149140652D01*
X118808582Y-149227687D01*
X118745975Y-149303975D01*
X118669687Y-149366582D01*
X118582652Y-149413103D01*
X118488213Y-149441751D01*
X118390000Y-149451424D01*
X118291788Y-149441751D01*
X118197349Y-149413103D01*
X118110314Y-149366582D01*
X118034026Y-149303975D01*
X117971419Y-149227687D01*
X117924898Y-149140652D01*
X117896250Y-149046213D01*
X117889001Y-148972612D01*
X117889000Y-148972602D01*
X117889000Y-148273389D01*
X117896249Y-148199788D01*
X117924897Y-148105349D01*
X117971418Y-148018313D01*
X118034025Y-147942025D01*
X118110313Y-147879418D01*
X118197348Y-147832897D01*
X118291787Y-147804249D01*
X118390000Y-147794576D01*
X118488212Y-147804249D01*
G37*
G36*
X133969740Y-148352626D02*
G01*
X134018136Y-148362253D01*
X134055902Y-148377896D01*
X134109311Y-148400019D01*
X134109312Y-148400020D01*
X134191369Y-148454848D01*
X134261152Y-148524631D01*
X134261153Y-148524633D01*
X134315981Y-148606689D01*
X134338104Y-148660098D01*
X134353747Y-148697864D01*
X134373000Y-148794656D01*
X134373000Y-148893344D01*
X134353747Y-148990136D01*
X134338104Y-149027902D01*
X134315981Y-149081311D01*
X134315980Y-149081312D01*
X134261152Y-149163369D01*
X134191369Y-149233152D01*
X134150062Y-149260752D01*
X134109311Y-149287981D01*
X134055902Y-149310104D01*
X134018136Y-149325747D01*
X133969740Y-149335373D01*
X133921345Y-149345000D01*
X133822655Y-149345000D01*
X133774260Y-149335373D01*
X133725864Y-149325747D01*
X133688098Y-149310104D01*
X133634689Y-149287981D01*
X133593938Y-149260752D01*
X133552631Y-149233152D01*
X133482848Y-149163369D01*
X133428020Y-149081312D01*
X133428019Y-149081311D01*
X133405896Y-149027902D01*
X133390253Y-148990136D01*
X133371000Y-148893344D01*
X133371000Y-148794656D01*
X133390253Y-148697864D01*
X133405896Y-148660098D01*
X133428019Y-148606689D01*
X133482847Y-148524633D01*
X133482848Y-148524631D01*
X133552631Y-148454848D01*
X133634688Y-148400020D01*
X133634689Y-148400019D01*
X133688098Y-148377896D01*
X133725864Y-148362253D01*
X133774260Y-148352626D01*
X133822655Y-148343000D01*
X133921345Y-148343000D01*
X133969740Y-148352626D01*
G37*
G36*
X131669740Y-148352626D02*
G01*
X131718136Y-148362253D01*
X131755902Y-148377896D01*
X131809311Y-148400019D01*
X131809312Y-148400020D01*
X131891369Y-148454848D01*
X131961152Y-148524631D01*
X131961153Y-148524633D01*
X132015981Y-148606689D01*
X132038104Y-148660098D01*
X132053747Y-148697864D01*
X132073000Y-148794656D01*
X132073000Y-148893344D01*
X132053747Y-148990136D01*
X132038104Y-149027902D01*
X132015981Y-149081311D01*
X132015980Y-149081312D01*
X131961152Y-149163369D01*
X131891369Y-149233152D01*
X131850062Y-149260752D01*
X131809311Y-149287981D01*
X131755902Y-149310104D01*
X131718136Y-149325747D01*
X131669740Y-149335373D01*
X131621345Y-149345000D01*
X131522655Y-149345000D01*
X131474260Y-149335373D01*
X131425864Y-149325747D01*
X131388098Y-149310104D01*
X131334689Y-149287981D01*
X131293938Y-149260752D01*
X131252631Y-149233152D01*
X131182848Y-149163369D01*
X131128020Y-149081312D01*
X131128019Y-149081311D01*
X131105896Y-149027902D01*
X131090253Y-148990136D01*
X131071000Y-148893344D01*
X131071000Y-148794656D01*
X131090253Y-148697864D01*
X131105896Y-148660098D01*
X131128019Y-148606689D01*
X131182847Y-148524633D01*
X131182848Y-148524631D01*
X131252631Y-148454848D01*
X131334688Y-148400020D01*
X131334689Y-148400019D01*
X131388098Y-148377896D01*
X131425864Y-148362253D01*
X131474260Y-148352626D01*
X131522655Y-148343000D01*
X131621345Y-148343000D01*
X131669740Y-148352626D01*
G37*
G36*
X157593512Y-146423927D02*
G01*
X157742812Y-146453624D01*
X157906784Y-146521544D01*
X158054354Y-146620147D01*
X158179853Y-146745646D01*
X158278456Y-146893216D01*
X158346376Y-147057188D01*
X158381000Y-147231259D01*
X158381000Y-147408741D01*
X158346376Y-147582812D01*
X158278456Y-147746784D01*
X158179853Y-147894354D01*
X158054354Y-148019853D01*
X157906784Y-148118456D01*
X157742812Y-148186376D01*
X157593512Y-148216073D01*
X157568742Y-148221000D01*
X157391258Y-148221000D01*
X157366488Y-148216073D01*
X157217188Y-148186376D01*
X157053216Y-148118456D01*
X156905646Y-148019853D01*
X156780147Y-147894354D01*
X156681544Y-147746784D01*
X156613624Y-147582812D01*
X156579000Y-147408741D01*
X156579000Y-147231259D01*
X156613624Y-147057188D01*
X156681544Y-146893216D01*
X156780147Y-146745646D01*
X156905646Y-146620147D01*
X157053216Y-146521544D01*
X157217188Y-146453624D01*
X157366488Y-146423927D01*
X157391258Y-146419000D01*
X157568742Y-146419000D01*
X157593512Y-146423927D01*
G37*
G36*
X139813512Y-146423927D02*
G01*
X139962812Y-146453624D01*
X140126784Y-146521544D01*
X140274354Y-146620147D01*
X140399853Y-146745646D01*
X140498456Y-146893216D01*
X140566376Y-147057188D01*
X140601000Y-147231259D01*
X140601000Y-147408741D01*
X140566376Y-147582812D01*
X140498456Y-147746784D01*
X140399853Y-147894354D01*
X140274354Y-148019853D01*
X140126784Y-148118456D01*
X139962812Y-148186376D01*
X139813512Y-148216073D01*
X139788742Y-148221000D01*
X139611258Y-148221000D01*
X139586488Y-148216073D01*
X139437188Y-148186376D01*
X139273216Y-148118456D01*
X139125646Y-148019853D01*
X139000147Y-147894354D01*
X138901544Y-147746784D01*
X138833624Y-147582812D01*
X138799000Y-147408741D01*
X138799000Y-147231259D01*
X138833624Y-147057188D01*
X138901544Y-146893216D01*
X139000147Y-146745646D01*
X139125646Y-146620147D01*
X139273216Y-146521544D01*
X139437188Y-146453624D01*
X139586488Y-146423927D01*
X139611258Y-146419000D01*
X139788742Y-146419000D01*
X139813512Y-146423927D01*
G37*
G36*
X142353512Y-146423927D02*
G01*
X142502812Y-146453624D01*
X142666784Y-146521544D01*
X142814354Y-146620147D01*
X142939853Y-146745646D01*
X143038456Y-146893216D01*
X143106376Y-147057188D01*
X143141000Y-147231259D01*
X143141000Y-147408741D01*
X143106376Y-147582812D01*
X143038456Y-147746784D01*
X142939853Y-147894354D01*
X142814354Y-148019853D01*
X142666784Y-148118456D01*
X142502812Y-148186376D01*
X142353512Y-148216073D01*
X142328742Y-148221000D01*
X142151258Y-148221000D01*
X142126488Y-148216073D01*
X141977188Y-148186376D01*
X141813216Y-148118456D01*
X141665646Y-148019853D01*
X141540147Y-147894354D01*
X141441544Y-147746784D01*
X141373624Y-147582812D01*
X141339000Y-147408741D01*
X141339000Y-147231259D01*
X141373624Y-147057188D01*
X141441544Y-146893216D01*
X141540147Y-146745646D01*
X141665646Y-146620147D01*
X141813216Y-146521544D01*
X141977188Y-146453624D01*
X142126488Y-146423927D01*
X142151258Y-146419000D01*
X142328742Y-146419000D01*
X142353512Y-146423927D01*
G37*
G36*
X144893512Y-146423927D02*
G01*
X145042812Y-146453624D01*
X145206784Y-146521544D01*
X145354354Y-146620147D01*
X145479853Y-146745646D01*
X145578456Y-146893216D01*
X145646376Y-147057188D01*
X145681000Y-147231259D01*
X145681000Y-147408741D01*
X145646376Y-147582812D01*
X145578456Y-147746784D01*
X145479853Y-147894354D01*
X145354354Y-148019853D01*
X145206784Y-148118456D01*
X145042812Y-148186376D01*
X144893512Y-148216073D01*
X144868742Y-148221000D01*
X144691258Y-148221000D01*
X144666488Y-148216073D01*
X144517188Y-148186376D01*
X144353216Y-148118456D01*
X144205646Y-148019853D01*
X144080147Y-147894354D01*
X143981544Y-147746784D01*
X143913624Y-147582812D01*
X143879000Y-147408741D01*
X143879000Y-147231259D01*
X143913624Y-147057188D01*
X143981544Y-146893216D01*
X144080147Y-146745646D01*
X144205646Y-146620147D01*
X144353216Y-146521544D01*
X144517188Y-146453624D01*
X144666488Y-146423927D01*
X144691258Y-146419000D01*
X144868742Y-146419000D01*
X144893512Y-146423927D01*
G37*
G36*
X147433512Y-146423927D02*
G01*
X147582812Y-146453624D01*
X147746784Y-146521544D01*
X147894354Y-146620147D01*
X148019853Y-146745646D01*
X148118456Y-146893216D01*
X148186376Y-147057188D01*
X148221000Y-147231259D01*
X148221000Y-147408741D01*
X148186376Y-147582812D01*
X148118456Y-147746784D01*
X148019853Y-147894354D01*
X147894354Y-148019853D01*
X147746784Y-148118456D01*
X147582812Y-148186376D01*
X147433512Y-148216073D01*
X147408742Y-148221000D01*
X147231258Y-148221000D01*
X147206488Y-148216073D01*
X147057188Y-148186376D01*
X146893216Y-148118456D01*
X146745646Y-148019853D01*
X146620147Y-147894354D01*
X146521544Y-147746784D01*
X146453624Y-147582812D01*
X146419000Y-147408741D01*
X146419000Y-147231259D01*
X146453624Y-147057188D01*
X146521544Y-146893216D01*
X146620147Y-146745646D01*
X146745646Y-146620147D01*
X146893216Y-146521544D01*
X147057188Y-146453624D01*
X147206488Y-146423927D01*
X147231258Y-146419000D01*
X147408742Y-146419000D01*
X147433512Y-146423927D01*
G37*
G36*
X149973512Y-146423927D02*
G01*
X150122812Y-146453624D01*
X150286784Y-146521544D01*
X150434354Y-146620147D01*
X150559853Y-146745646D01*
X150658456Y-146893216D01*
X150726376Y-147057188D01*
X150761000Y-147231259D01*
X150761000Y-147408741D01*
X150726376Y-147582812D01*
X150658456Y-147746784D01*
X150559853Y-147894354D01*
X150434354Y-148019853D01*
X150286784Y-148118456D01*
X150122812Y-148186376D01*
X149973512Y-148216073D01*
X149948742Y-148221000D01*
X149771258Y-148221000D01*
X149746488Y-148216073D01*
X149597188Y-148186376D01*
X149433216Y-148118456D01*
X149285646Y-148019853D01*
X149160147Y-147894354D01*
X149061544Y-147746784D01*
X148993624Y-147582812D01*
X148959000Y-147408741D01*
X148959000Y-147231259D01*
X148993624Y-147057188D01*
X149061544Y-146893216D01*
X149160147Y-146745646D01*
X149285646Y-146620147D01*
X149433216Y-146521544D01*
X149597188Y-146453624D01*
X149746488Y-146423927D01*
X149771258Y-146419000D01*
X149948742Y-146419000D01*
X149973512Y-146423927D01*
G37*
G36*
X152513512Y-146423927D02*
G01*
X152662812Y-146453624D01*
X152826784Y-146521544D01*
X152974354Y-146620147D01*
X153099853Y-146745646D01*
X153198456Y-146893216D01*
X153266376Y-147057188D01*
X153301000Y-147231259D01*
X153301000Y-147408741D01*
X153266376Y-147582812D01*
X153198456Y-147746784D01*
X153099853Y-147894354D01*
X152974354Y-148019853D01*
X152826784Y-148118456D01*
X152662812Y-148186376D01*
X152513512Y-148216073D01*
X152488742Y-148221000D01*
X152311258Y-148221000D01*
X152286488Y-148216073D01*
X152137188Y-148186376D01*
X151973216Y-148118456D01*
X151825646Y-148019853D01*
X151700147Y-147894354D01*
X151601544Y-147746784D01*
X151533624Y-147582812D01*
X151499000Y-147408741D01*
X151499000Y-147231259D01*
X151533624Y-147057188D01*
X151601544Y-146893216D01*
X151700147Y-146745646D01*
X151825646Y-146620147D01*
X151973216Y-146521544D01*
X152137188Y-146453624D01*
X152286488Y-146423927D01*
X152311258Y-146419000D01*
X152488742Y-146419000D01*
X152513512Y-146423927D01*
G37*
G36*
X155053512Y-146423927D02*
G01*
X155202812Y-146453624D01*
X155366784Y-146521544D01*
X155514354Y-146620147D01*
X155639853Y-146745646D01*
X155738456Y-146893216D01*
X155806376Y-147057188D01*
X155841000Y-147231259D01*
X155841000Y-147408741D01*
X155806376Y-147582812D01*
X155738456Y-147746784D01*
X155639853Y-147894354D01*
X155514354Y-148019853D01*
X155366784Y-148118456D01*
X155202812Y-148186376D01*
X155053512Y-148216073D01*
X155028742Y-148221000D01*
X154851258Y-148221000D01*
X154826488Y-148216073D01*
X154677188Y-148186376D01*
X154513216Y-148118456D01*
X154365646Y-148019853D01*
X154240147Y-147894354D01*
X154141544Y-147746784D01*
X154073624Y-147582812D01*
X154039000Y-147408741D01*
X154039000Y-147231259D01*
X154073624Y-147057188D01*
X154141544Y-146893216D01*
X154240147Y-146745646D01*
X154365646Y-146620147D01*
X154513216Y-146521544D01*
X154677188Y-146453624D01*
X154826488Y-146423927D01*
X154851258Y-146419000D01*
X155028742Y-146419000D01*
X155053512Y-146423927D01*
G37*
G36*
X160133512Y-146423927D02*
G01*
X160282812Y-146453624D01*
X160446784Y-146521544D01*
X160594354Y-146620147D01*
X160719853Y-146745646D01*
X160818456Y-146893216D01*
X160886376Y-147057188D01*
X160921000Y-147231259D01*
X160921000Y-147408741D01*
X160886376Y-147582812D01*
X160818456Y-147746784D01*
X160719853Y-147894354D01*
X160594354Y-148019853D01*
X160446784Y-148118456D01*
X160282812Y-148186376D01*
X160133512Y-148216073D01*
X160108742Y-148221000D01*
X159931258Y-148221000D01*
X159906488Y-148216073D01*
X159757188Y-148186376D01*
X159593216Y-148118456D01*
X159445646Y-148019853D01*
X159320147Y-147894354D01*
X159221544Y-147746784D01*
X159153624Y-147582812D01*
X159119000Y-147408741D01*
X159119000Y-147231259D01*
X159153624Y-147057188D01*
X159221544Y-146893216D01*
X159320147Y-146745646D01*
X159445646Y-146620147D01*
X159593216Y-146521544D01*
X159757188Y-146453624D01*
X159906488Y-146423927D01*
X159931258Y-146419000D01*
X160108742Y-146419000D01*
X160133512Y-146423927D01*
G37*
G36*
X162673512Y-146423927D02*
G01*
X162822812Y-146453624D01*
X162986784Y-146521544D01*
X163134354Y-146620147D01*
X163259853Y-146745646D01*
X163358456Y-146893216D01*
X163426376Y-147057188D01*
X163461000Y-147231259D01*
X163461000Y-147408741D01*
X163426376Y-147582812D01*
X163358456Y-147746784D01*
X163259853Y-147894354D01*
X163134354Y-148019853D01*
X162986784Y-148118456D01*
X162822812Y-148186376D01*
X162673512Y-148216073D01*
X162648742Y-148221000D01*
X162471258Y-148221000D01*
X162446488Y-148216073D01*
X162297188Y-148186376D01*
X162133216Y-148118456D01*
X161985646Y-148019853D01*
X161860147Y-147894354D01*
X161761544Y-147746784D01*
X161693624Y-147582812D01*
X161659000Y-147408741D01*
X161659000Y-147231259D01*
X161693624Y-147057188D01*
X161761544Y-146893216D01*
X161860147Y-146745646D01*
X161985646Y-146620147D01*
X162133216Y-146521544D01*
X162297188Y-146453624D01*
X162446488Y-146423927D01*
X162471258Y-146419000D01*
X162648742Y-146419000D01*
X162673512Y-146423927D01*
G37*
G36*
X119643114Y-145404611D02*
G01*
X119742265Y-145434688D01*
X119833644Y-145483531D01*
X119913738Y-145549262D01*
X119979469Y-145629356D01*
X120028312Y-145720735D01*
X120058389Y-145819886D01*
X120068545Y-145923000D01*
X120058389Y-146026114D01*
X120028312Y-146125265D01*
X119979469Y-146216644D01*
X119913738Y-146296738D01*
X119833644Y-146362469D01*
X119742265Y-146411312D01*
X119643114Y-146441389D01*
X119565839Y-146449000D01*
X119214161Y-146449000D01*
X119136886Y-146441389D01*
X119037735Y-146411312D01*
X118946356Y-146362469D01*
X118866262Y-146296738D01*
X118800531Y-146216644D01*
X118751688Y-146125265D01*
X118721611Y-146026114D01*
X118711455Y-145923000D01*
X118721611Y-145819886D01*
X118751688Y-145720735D01*
X118800531Y-145629356D01*
X118866262Y-145549262D01*
X118946356Y-145483531D01*
X119037735Y-145434688D01*
X119136886Y-145404611D01*
X119214161Y-145397000D01*
X119565839Y-145397000D01*
X119643114Y-145404611D01*
G37*
G36*
X124643114Y-145404611D02*
G01*
X124742265Y-145434688D01*
X124833644Y-145483531D01*
X124913738Y-145549262D01*
X124979469Y-145629356D01*
X125028312Y-145720735D01*
X125058389Y-145819886D01*
X125068545Y-145923000D01*
X125058389Y-146026114D01*
X125028312Y-146125265D01*
X124979469Y-146216644D01*
X124913738Y-146296738D01*
X124833644Y-146362469D01*
X124742265Y-146411312D01*
X124643114Y-146441389D01*
X124565839Y-146449000D01*
X124214161Y-146449000D01*
X124136886Y-146441389D01*
X124037735Y-146411312D01*
X123946356Y-146362469D01*
X123866262Y-146296738D01*
X123800531Y-146216644D01*
X123751688Y-146125265D01*
X123721611Y-146026114D01*
X123711455Y-145923000D01*
X123721611Y-145819886D01*
X123751688Y-145720735D01*
X123800531Y-145629356D01*
X123866262Y-145549262D01*
X123946356Y-145483531D01*
X124037735Y-145434688D01*
X124136886Y-145404611D01*
X124214161Y-145397000D01*
X124565839Y-145397000D01*
X124643114Y-145404611D01*
G37*
G36*
X116953512Y-138803927D02*
G01*
X117102812Y-138833624D01*
X117266784Y-138901544D01*
X117414354Y-139000147D01*
X117539853Y-139125646D01*
X117638456Y-139273216D01*
X117706376Y-139437188D01*
X117741000Y-139611259D01*
X117741000Y-139788741D01*
X117706376Y-139962812D01*
X117638456Y-140126784D01*
X117539853Y-140274354D01*
X117414354Y-140399853D01*
X117266784Y-140498456D01*
X117102812Y-140566376D01*
X116953512Y-140596073D01*
X116928742Y-140601000D01*
X116751258Y-140601000D01*
X116726488Y-140596073D01*
X116577188Y-140566376D01*
X116413216Y-140498456D01*
X116265646Y-140399853D01*
X116140147Y-140274354D01*
X116041544Y-140126784D01*
X115973624Y-139962812D01*
X115939000Y-139788741D01*
X115939000Y-139611259D01*
X115973624Y-139437188D01*
X116041544Y-139273216D01*
X116140147Y-139125646D01*
X116265646Y-139000147D01*
X116413216Y-138901544D01*
X116577188Y-138833624D01*
X116726488Y-138803927D01*
X116751258Y-138799000D01*
X116928742Y-138799000D01*
X116953512Y-138803927D01*
G37*
G36*
X162673512Y-138803927D02*
G01*
X162822812Y-138833624D01*
X162986784Y-138901544D01*
X163134354Y-139000147D01*
X163259853Y-139125646D01*
X163358456Y-139273216D01*
X163426376Y-139437188D01*
X163461000Y-139611259D01*
X163461000Y-139788741D01*
X163426376Y-139962812D01*
X163358456Y-140126784D01*
X163259853Y-140274354D01*
X163134354Y-140399853D01*
X162986784Y-140498456D01*
X162822812Y-140566376D01*
X162673512Y-140596073D01*
X162648742Y-140601000D01*
X162471258Y-140601000D01*
X162446488Y-140596073D01*
X162297188Y-140566376D01*
X162133216Y-140498456D01*
X161985646Y-140399853D01*
X161860147Y-140274354D01*
X161761544Y-140126784D01*
X161693624Y-139962812D01*
X161659000Y-139788741D01*
X161659000Y-139611259D01*
X161693624Y-139437188D01*
X161761544Y-139273216D01*
X161860147Y-139125646D01*
X161985646Y-139000147D01*
X162133216Y-138901544D01*
X162297188Y-138833624D01*
X162446488Y-138803927D01*
X162471258Y-138799000D01*
X162648742Y-138799000D01*
X162673512Y-138803927D01*
G37*
G36*
X116953512Y-136263927D02*
G01*
X117102812Y-136293624D01*
X117266784Y-136361544D01*
X117414354Y-136460147D01*
X117539853Y-136585646D01*
X117638456Y-136733216D01*
X117706376Y-136897188D01*
X117741000Y-137071259D01*
X117741000Y-137248741D01*
X117706376Y-137422812D01*
X117638456Y-137586784D01*
X117539853Y-137734354D01*
X117414354Y-137859853D01*
X117266784Y-137958456D01*
X117102812Y-138026376D01*
X116953512Y-138056073D01*
X116928742Y-138061000D01*
X116751258Y-138061000D01*
X116726488Y-138056073D01*
X116577188Y-138026376D01*
X116413216Y-137958456D01*
X116265646Y-137859853D01*
X116140147Y-137734354D01*
X116041544Y-137586784D01*
X115973624Y-137422812D01*
X115939000Y-137248741D01*
X115939000Y-137071259D01*
X115973624Y-136897188D01*
X116041544Y-136733216D01*
X116140147Y-136585646D01*
X116265646Y-136460147D01*
X116413216Y-136361544D01*
X116577188Y-136293624D01*
X116726488Y-136263927D01*
X116751258Y-136259000D01*
X116928742Y-136259000D01*
X116953512Y-136263927D01*
G37*
G36*
X162673512Y-136263927D02*
G01*
X162822812Y-136293624D01*
X162986784Y-136361544D01*
X163134354Y-136460147D01*
X163259853Y-136585646D01*
X163358456Y-136733216D01*
X163426376Y-136897188D01*
X163461000Y-137071259D01*
X163461000Y-137248741D01*
X163426376Y-137422812D01*
X163358456Y-137586784D01*
X163259853Y-137734354D01*
X163134354Y-137859853D01*
X162986784Y-137958456D01*
X162822812Y-138026376D01*
X162673512Y-138056073D01*
X162648742Y-138061000D01*
X162471258Y-138061000D01*
X162446488Y-138056073D01*
X162297188Y-138026376D01*
X162133216Y-137958456D01*
X161985646Y-137859853D01*
X161860147Y-137734354D01*
X161761544Y-137586784D01*
X161693624Y-137422812D01*
X161659000Y-137248741D01*
X161659000Y-137071259D01*
X161693624Y-136897188D01*
X161761544Y-136733216D01*
X161860147Y-136585646D01*
X161985646Y-136460147D01*
X162133216Y-136361544D01*
X162297188Y-136293624D01*
X162446488Y-136263927D01*
X162471258Y-136259000D01*
X162648742Y-136259000D01*
X162673512Y-136263927D01*
G37*
G36*
X127113512Y-133723927D02*
G01*
X127262812Y-133753624D01*
X127426784Y-133821544D01*
X127574354Y-133920147D01*
X127699853Y-134045646D01*
X127798456Y-134193216D01*
X127866376Y-134357188D01*
X127901000Y-134531259D01*
X127901000Y-134708741D01*
X127866376Y-134882812D01*
X127798456Y-135046784D01*
X127699853Y-135194354D01*
X127574354Y-135319853D01*
X127426784Y-135418456D01*
X127262812Y-135486376D01*
X127113512Y-135516073D01*
X127088742Y-135521000D01*
X126911258Y-135521000D01*
X126886488Y-135516073D01*
X126737188Y-135486376D01*
X126573216Y-135418456D01*
X126425646Y-135319853D01*
X126300147Y-135194354D01*
X126201544Y-135046784D01*
X126133624Y-134882812D01*
X126099000Y-134708741D01*
X126099000Y-134531259D01*
X126133624Y-134357188D01*
X126201544Y-134193216D01*
X126300147Y-134045646D01*
X126425646Y-133920147D01*
X126573216Y-133821544D01*
X126737188Y-133753624D01*
X126886488Y-133723927D01*
X126911258Y-133719000D01*
X127088742Y-133719000D01*
X127113512Y-133723927D01*
G37*
G36*
X117741000Y-135521000D02*
G01*
X115939000Y-135521000D01*
X115939000Y-133719000D01*
X117741000Y-133719000D01*
X117741000Y-135521000D01*
G37*
G36*
X163461000Y-135521000D02*
G01*
X161659000Y-135521000D01*
X161659000Y-133719000D01*
X163461000Y-133719000D01*
X163461000Y-135521000D01*
G37*
G36*
X125361000Y-135521000D02*
G01*
X123559000Y-135521000D01*
X123559000Y-133719000D01*
X125361000Y-133719000D01*
X125361000Y-135521000D01*
G37*
G36*
X119493512Y-128643927D02*
G01*
X119642812Y-128673624D01*
X119806784Y-128741544D01*
X119954354Y-128840147D01*
X120079853Y-128965646D01*
X120178456Y-129113216D01*
X120246376Y-129277188D01*
X120281000Y-129451259D01*
X120281000Y-129628741D01*
X120246376Y-129802812D01*
X120178456Y-129966784D01*
X120079853Y-130114354D01*
X119954354Y-130239853D01*
X119806784Y-130338456D01*
X119642812Y-130406376D01*
X119493512Y-130436073D01*
X119468742Y-130441000D01*
X119291258Y-130441000D01*
X119266488Y-130436073D01*
X119117188Y-130406376D01*
X118953216Y-130338456D01*
X118805646Y-130239853D01*
X118680147Y-130114354D01*
X118581544Y-129966784D01*
X118513624Y-129802812D01*
X118479000Y-129628741D01*
X118479000Y-129451259D01*
X118513624Y-129277188D01*
X118581544Y-129113216D01*
X118680147Y-128965646D01*
X118805646Y-128840147D01*
X118953216Y-128741544D01*
X119117188Y-128673624D01*
X119266488Y-128643927D01*
X119291258Y-128639000D01*
X119468742Y-128639000D01*
X119493512Y-128643927D01*
G37*
G36*
X116953512Y-128643927D02*
G01*
X117102812Y-128673624D01*
X117266784Y-128741544D01*
X117414354Y-128840147D01*
X117539853Y-128965646D01*
X117638456Y-129113216D01*
X117706376Y-129277188D01*
X117741000Y-129451259D01*
X117741000Y-129628741D01*
X117706376Y-129802812D01*
X117638456Y-129966784D01*
X117539853Y-130114354D01*
X117414354Y-130239853D01*
X117266784Y-130338456D01*
X117102812Y-130406376D01*
X116953512Y-130436073D01*
X116928742Y-130441000D01*
X116751258Y-130441000D01*
X116726488Y-130436073D01*
X116577188Y-130406376D01*
X116413216Y-130338456D01*
X116265646Y-130239853D01*
X116140147Y-130114354D01*
X116041544Y-129966784D01*
X115973624Y-129802812D01*
X115939000Y-129628741D01*
X115939000Y-129451259D01*
X115973624Y-129277188D01*
X116041544Y-129113216D01*
X116140147Y-128965646D01*
X116265646Y-128840147D01*
X116413216Y-128741544D01*
X116577188Y-128673624D01*
X116726488Y-128643927D01*
X116751258Y-128639000D01*
X116928742Y-128639000D01*
X116953512Y-128643927D01*
G37*
G36*
X162673512Y-128643927D02*
G01*
X162822812Y-128673624D01*
X162986784Y-128741544D01*
X163134354Y-128840147D01*
X163259853Y-128965646D01*
X163358456Y-129113216D01*
X163426376Y-129277188D01*
X163461000Y-129451259D01*
X163461000Y-129628741D01*
X163426376Y-129802812D01*
X163358456Y-129966784D01*
X163259853Y-130114354D01*
X163134354Y-130239853D01*
X162986784Y-130338456D01*
X162822812Y-130406376D01*
X162673512Y-130436073D01*
X162648742Y-130441000D01*
X162471258Y-130441000D01*
X162446488Y-130436073D01*
X162297188Y-130406376D01*
X162133216Y-130338456D01*
X161985646Y-130239853D01*
X161860147Y-130114354D01*
X161761544Y-129966784D01*
X161693624Y-129802812D01*
X161659000Y-129628741D01*
X161659000Y-129451259D01*
X161693624Y-129277188D01*
X161761544Y-129113216D01*
X161860147Y-128965646D01*
X161985646Y-128840147D01*
X162133216Y-128741544D01*
X162297188Y-128673624D01*
X162446488Y-128643927D01*
X162471258Y-128639000D01*
X162648742Y-128639000D01*
X162673512Y-128643927D01*
G37*
G36*
X160133512Y-128643927D02*
G01*
X160282812Y-128673624D01*
X160446784Y-128741544D01*
X160594354Y-128840147D01*
X160719853Y-128965646D01*
X160818456Y-129113216D01*
X160886376Y-129277188D01*
X160921000Y-129451259D01*
X160921000Y-129628741D01*
X160886376Y-129802812D01*
X160818456Y-129966784D01*
X160719853Y-130114354D01*
X160594354Y-130239853D01*
X160446784Y-130338456D01*
X160282812Y-130406376D01*
X160133512Y-130436073D01*
X160108742Y-130441000D01*
X159931258Y-130441000D01*
X159906488Y-130436073D01*
X159757188Y-130406376D01*
X159593216Y-130338456D01*
X159445646Y-130239853D01*
X159320147Y-130114354D01*
X159221544Y-129966784D01*
X159153624Y-129802812D01*
X159119000Y-129628741D01*
X159119000Y-129451259D01*
X159153624Y-129277188D01*
X159221544Y-129113216D01*
X159320147Y-128965646D01*
X159445646Y-128840147D01*
X159593216Y-128741544D01*
X159757188Y-128673624D01*
X159906488Y-128643927D01*
X159931258Y-128639000D01*
X160108742Y-128639000D01*
X160133512Y-128643927D01*
G37*
G36*
X119493512Y-126103927D02*
G01*
X119642812Y-126133624D01*
X119806784Y-126201544D01*
X119954354Y-126300147D01*
X120079853Y-126425646D01*
X120178456Y-126573216D01*
X120246376Y-126737188D01*
X120281000Y-126911259D01*
X120281000Y-127088741D01*
X120246376Y-127262812D01*
X120178456Y-127426784D01*
X120079853Y-127574354D01*
X119954354Y-127699853D01*
X119806784Y-127798456D01*
X119642812Y-127866376D01*
X119493512Y-127896073D01*
X119468742Y-127901000D01*
X119291258Y-127901000D01*
X119266488Y-127896073D01*
X119117188Y-127866376D01*
X118953216Y-127798456D01*
X118805646Y-127699853D01*
X118680147Y-127574354D01*
X118581544Y-127426784D01*
X118513624Y-127262812D01*
X118479000Y-127088741D01*
X118479000Y-126911259D01*
X118513624Y-126737188D01*
X118581544Y-126573216D01*
X118680147Y-126425646D01*
X118805646Y-126300147D01*
X118953216Y-126201544D01*
X119117188Y-126133624D01*
X119266488Y-126103927D01*
X119291258Y-126099000D01*
X119468742Y-126099000D01*
X119493512Y-126103927D01*
G37*
G36*
X116953512Y-126103927D02*
G01*
X117102812Y-126133624D01*
X117266784Y-126201544D01*
X117414354Y-126300147D01*
X117539853Y-126425646D01*
X117638456Y-126573216D01*
X117706376Y-126737188D01*
X117741000Y-126911259D01*
X117741000Y-127088741D01*
X117706376Y-127262812D01*
X117638456Y-127426784D01*
X117539853Y-127574354D01*
X117414354Y-127699853D01*
X117266784Y-127798456D01*
X117102812Y-127866376D01*
X116953512Y-127896073D01*
X116928742Y-127901000D01*
X116751258Y-127901000D01*
X116726488Y-127896073D01*
X116577188Y-127866376D01*
X116413216Y-127798456D01*
X116265646Y-127699853D01*
X116140147Y-127574354D01*
X116041544Y-127426784D01*
X115973624Y-127262812D01*
X115939000Y-127088741D01*
X115939000Y-126911259D01*
X115973624Y-126737188D01*
X116041544Y-126573216D01*
X116140147Y-126425646D01*
X116265646Y-126300147D01*
X116413216Y-126201544D01*
X116577188Y-126133624D01*
X116726488Y-126103927D01*
X116751258Y-126099000D01*
X116928742Y-126099000D01*
X116953512Y-126103927D01*
G37*
G36*
X162673512Y-126103927D02*
G01*
X162822812Y-126133624D01*
X162986784Y-126201544D01*
X163134354Y-126300147D01*
X163259853Y-126425646D01*
X163358456Y-126573216D01*
X163426376Y-126737188D01*
X163461000Y-126911259D01*
X163461000Y-127088741D01*
X163426376Y-127262812D01*
X163358456Y-127426784D01*
X163259853Y-127574354D01*
X163134354Y-127699853D01*
X162986784Y-127798456D01*
X162822812Y-127866376D01*
X162673512Y-127896073D01*
X162648742Y-127901000D01*
X162471258Y-127901000D01*
X162446488Y-127896073D01*
X162297188Y-127866376D01*
X162133216Y-127798456D01*
X161985646Y-127699853D01*
X161860147Y-127574354D01*
X161761544Y-127426784D01*
X161693624Y-127262812D01*
X161659000Y-127088741D01*
X161659000Y-126911259D01*
X161693624Y-126737188D01*
X161761544Y-126573216D01*
X161860147Y-126425646D01*
X161985646Y-126300147D01*
X162133216Y-126201544D01*
X162297188Y-126133624D01*
X162446488Y-126103927D01*
X162471258Y-126099000D01*
X162648742Y-126099000D01*
X162673512Y-126103927D01*
G37*
G36*
X160133512Y-126103927D02*
G01*
X160282812Y-126133624D01*
X160446784Y-126201544D01*
X160594354Y-126300147D01*
X160719853Y-126425646D01*
X160818456Y-126573216D01*
X160886376Y-126737188D01*
X160921000Y-126911259D01*
X160921000Y-127088741D01*
X160886376Y-127262812D01*
X160818456Y-127426784D01*
X160719853Y-127574354D01*
X160594354Y-127699853D01*
X160446784Y-127798456D01*
X160282812Y-127866376D01*
X160133512Y-127896073D01*
X160108742Y-127901000D01*
X159931258Y-127901000D01*
X159906488Y-127896073D01*
X159757188Y-127866376D01*
X159593216Y-127798456D01*
X159445646Y-127699853D01*
X159320147Y-127574354D01*
X159221544Y-127426784D01*
X159153624Y-127262812D01*
X159119000Y-127088741D01*
X159119000Y-126911259D01*
X159153624Y-126737188D01*
X159221544Y-126573216D01*
X159320147Y-126425646D01*
X159445646Y-126300147D01*
X159593216Y-126201544D01*
X159757188Y-126133624D01*
X159906488Y-126103927D01*
X159931258Y-126099000D01*
X160108742Y-126099000D01*
X160133512Y-126103927D01*
G37*
G36*
X162673512Y-123563927D02*
G01*
X162822812Y-123593624D01*
X162986784Y-123661544D01*
X163134354Y-123760147D01*
X163259853Y-123885646D01*
X163358456Y-124033216D01*
X163426376Y-124197188D01*
X163461000Y-124371259D01*
X163461000Y-124548741D01*
X163426376Y-124722812D01*
X163358456Y-124886784D01*
X163259853Y-125034354D01*
X163134354Y-125159853D01*
X162986784Y-125258456D01*
X162822812Y-125326376D01*
X162673512Y-125356073D01*
X162648742Y-125361000D01*
X162471258Y-125361000D01*
X162446488Y-125356073D01*
X162297188Y-125326376D01*
X162133216Y-125258456D01*
X161985646Y-125159853D01*
X161860147Y-125034354D01*
X161761544Y-124886784D01*
X161693624Y-124722812D01*
X161659000Y-124548741D01*
X161659000Y-124371259D01*
X161693624Y-124197188D01*
X161761544Y-124033216D01*
X161860147Y-123885646D01*
X161985646Y-123760147D01*
X162133216Y-123661544D01*
X162297188Y-123593624D01*
X162446488Y-123563927D01*
X162471258Y-123559000D01*
X162648742Y-123559000D01*
X162673512Y-123563927D01*
G37*
G36*
X160133512Y-123563927D02*
G01*
X160282812Y-123593624D01*
X160446784Y-123661544D01*
X160594354Y-123760147D01*
X160719853Y-123885646D01*
X160818456Y-124033216D01*
X160886376Y-124197188D01*
X160921000Y-124371259D01*
X160921000Y-124548741D01*
X160886376Y-124722812D01*
X160818456Y-124886784D01*
X160719853Y-125034354D01*
X160594354Y-125159853D01*
X160446784Y-125258456D01*
X160282812Y-125326376D01*
X160133512Y-125356073D01*
X160108742Y-125361000D01*
X159931258Y-125361000D01*
X159906488Y-125356073D01*
X159757188Y-125326376D01*
X159593216Y-125258456D01*
X159445646Y-125159853D01*
X159320147Y-125034354D01*
X159221544Y-124886784D01*
X159153624Y-124722812D01*
X159119000Y-124548741D01*
X159119000Y-124371259D01*
X159153624Y-124197188D01*
X159221544Y-124033216D01*
X159320147Y-123885646D01*
X159445646Y-123760147D01*
X159593216Y-123661544D01*
X159757188Y-123593624D01*
X159906488Y-123563927D01*
X159931258Y-123559000D01*
X160108742Y-123559000D01*
X160133512Y-123563927D01*
G37*
G36*
X116953512Y-123563927D02*
G01*
X117102812Y-123593624D01*
X117266784Y-123661544D01*
X117414354Y-123760147D01*
X117539853Y-123885646D01*
X117638456Y-124033216D01*
X117706376Y-124197188D01*
X117741000Y-124371259D01*
X117741000Y-124548741D01*
X117706376Y-124722812D01*
X117638456Y-124886784D01*
X117539853Y-125034354D01*
X117414354Y-125159853D01*
X117266784Y-125258456D01*
X117102812Y-125326376D01*
X116953512Y-125356073D01*
X116928742Y-125361000D01*
X116751258Y-125361000D01*
X116726488Y-125356073D01*
X116577188Y-125326376D01*
X116413216Y-125258456D01*
X116265646Y-125159853D01*
X116140147Y-125034354D01*
X116041544Y-124886784D01*
X115973624Y-124722812D01*
X115939000Y-124548741D01*
X115939000Y-124371259D01*
X115973624Y-124197188D01*
X116041544Y-124033216D01*
X116140147Y-123885646D01*
X116265646Y-123760147D01*
X116413216Y-123661544D01*
X116577188Y-123593624D01*
X116726488Y-123563927D01*
X116751258Y-123559000D01*
X116928742Y-123559000D01*
X116953512Y-123563927D01*
G37*
G36*
X119493512Y-123563927D02*
G01*
X119642812Y-123593624D01*
X119806784Y-123661544D01*
X119954354Y-123760147D01*
X120079853Y-123885646D01*
X120178456Y-124033216D01*
X120246376Y-124197188D01*
X120281000Y-124371259D01*
X120281000Y-124548741D01*
X120246376Y-124722812D01*
X120178456Y-124886784D01*
X120079853Y-125034354D01*
X119954354Y-125159853D01*
X119806784Y-125258456D01*
X119642812Y-125326376D01*
X119493512Y-125356073D01*
X119468742Y-125361000D01*
X119291258Y-125361000D01*
X119266488Y-125356073D01*
X119117188Y-125326376D01*
X118953216Y-125258456D01*
X118805646Y-125159853D01*
X118680147Y-125034354D01*
X118581544Y-124886784D01*
X118513624Y-124722812D01*
X118479000Y-124548741D01*
X118479000Y-124371259D01*
X118513624Y-124197188D01*
X118581544Y-124033216D01*
X118680147Y-123885646D01*
X118805646Y-123760147D01*
X118953216Y-123661544D01*
X119117188Y-123593624D01*
X119266488Y-123563927D01*
X119291258Y-123559000D01*
X119468742Y-123559000D01*
X119493512Y-123563927D01*
G37*
G36*
X162673512Y-121023927D02*
G01*
X162822812Y-121053624D01*
X162986784Y-121121544D01*
X163134354Y-121220147D01*
X163259853Y-121345646D01*
X163358456Y-121493216D01*
X163426376Y-121657188D01*
X163461000Y-121831259D01*
X163461000Y-122008741D01*
X163426376Y-122182812D01*
X163358456Y-122346784D01*
X163259853Y-122494354D01*
X163134354Y-122619853D01*
X162986784Y-122718456D01*
X162822812Y-122786376D01*
X162673512Y-122816073D01*
X162648742Y-122821000D01*
X162471258Y-122821000D01*
X162446488Y-122816073D01*
X162297188Y-122786376D01*
X162133216Y-122718456D01*
X161985646Y-122619853D01*
X161860147Y-122494354D01*
X161761544Y-122346784D01*
X161693624Y-122182812D01*
X161659000Y-122008741D01*
X161659000Y-121831259D01*
X161693624Y-121657188D01*
X161761544Y-121493216D01*
X161860147Y-121345646D01*
X161985646Y-121220147D01*
X162133216Y-121121544D01*
X162297188Y-121053624D01*
X162446488Y-121023927D01*
X162471258Y-121019000D01*
X162648742Y-121019000D01*
X162673512Y-121023927D01*
G37*
G36*
X116953512Y-121023927D02*
G01*
X117102812Y-121053624D01*
X117266784Y-121121544D01*
X117414354Y-121220147D01*
X117539853Y-121345646D01*
X117638456Y-121493216D01*
X117706376Y-121657188D01*
X117741000Y-121831259D01*
X117741000Y-122008741D01*
X117706376Y-122182812D01*
X117638456Y-122346784D01*
X117539853Y-122494354D01*
X117414354Y-122619853D01*
X117266784Y-122718456D01*
X117102812Y-122786376D01*
X116953512Y-122816073D01*
X116928742Y-122821000D01*
X116751258Y-122821000D01*
X116726488Y-122816073D01*
X116577188Y-122786376D01*
X116413216Y-122718456D01*
X116265646Y-122619853D01*
X116140147Y-122494354D01*
X116041544Y-122346784D01*
X115973624Y-122182812D01*
X115939000Y-122008741D01*
X115939000Y-121831259D01*
X115973624Y-121657188D01*
X116041544Y-121493216D01*
X116140147Y-121345646D01*
X116265646Y-121220147D01*
X116413216Y-121121544D01*
X116577188Y-121053624D01*
X116726488Y-121023927D01*
X116751258Y-121019000D01*
X116928742Y-121019000D01*
X116953512Y-121023927D01*
G37*
G36*
X119493512Y-121023927D02*
G01*
X119642812Y-121053624D01*
X119806784Y-121121544D01*
X119954354Y-121220147D01*
X120079853Y-121345646D01*
X120178456Y-121493216D01*
X120246376Y-121657188D01*
X120281000Y-121831259D01*
X120281000Y-122008741D01*
X120246376Y-122182812D01*
X120178456Y-122346784D01*
X120079853Y-122494354D01*
X119954354Y-122619853D01*
X119806784Y-122718456D01*
X119642812Y-122786376D01*
X119493512Y-122816073D01*
X119468742Y-122821000D01*
X119291258Y-122821000D01*
X119266488Y-122816073D01*
X119117188Y-122786376D01*
X118953216Y-122718456D01*
X118805646Y-122619853D01*
X118680147Y-122494354D01*
X118581544Y-122346784D01*
X118513624Y-122182812D01*
X118479000Y-122008741D01*
X118479000Y-121831259D01*
X118513624Y-121657188D01*
X118581544Y-121493216D01*
X118680147Y-121345646D01*
X118805646Y-121220147D01*
X118953216Y-121121544D01*
X119117188Y-121053624D01*
X119266488Y-121023927D01*
X119291258Y-121019000D01*
X119468742Y-121019000D01*
X119493512Y-121023927D01*
G37*
G36*
X160133512Y-121023927D02*
G01*
X160282812Y-121053624D01*
X160446784Y-121121544D01*
X160594354Y-121220147D01*
X160719853Y-121345646D01*
X160818456Y-121493216D01*
X160886376Y-121657188D01*
X160921000Y-121831259D01*
X160921000Y-122008741D01*
X160886376Y-122182812D01*
X160818456Y-122346784D01*
X160719853Y-122494354D01*
X160594354Y-122619853D01*
X160446784Y-122718456D01*
X160282812Y-122786376D01*
X160133512Y-122816073D01*
X160108742Y-122821000D01*
X159931258Y-122821000D01*
X159906488Y-122816073D01*
X159757188Y-122786376D01*
X159593216Y-122718456D01*
X159445646Y-122619853D01*
X159320147Y-122494354D01*
X159221544Y-122346784D01*
X159153624Y-122182812D01*
X159119000Y-122008741D01*
X159119000Y-121831259D01*
X159153624Y-121657188D01*
X159221544Y-121493216D01*
X159320147Y-121345646D01*
X159445646Y-121220147D01*
X159593216Y-121121544D01*
X159757188Y-121053624D01*
X159906488Y-121023927D01*
X159931258Y-121019000D01*
X160108742Y-121019000D01*
X160133512Y-121023927D01*
G37*
G36*
X162673512Y-118483927D02*
G01*
X162822812Y-118513624D01*
X162986784Y-118581544D01*
X163134354Y-118680147D01*
X163259853Y-118805646D01*
X163358456Y-118953216D01*
X163426376Y-119117188D01*
X163461000Y-119291259D01*
X163461000Y-119468741D01*
X163426376Y-119642812D01*
X163358456Y-119806784D01*
X163259853Y-119954354D01*
X163134354Y-120079853D01*
X162986784Y-120178456D01*
X162822812Y-120246376D01*
X162673512Y-120276073D01*
X162648742Y-120281000D01*
X162471258Y-120281000D01*
X162446488Y-120276073D01*
X162297188Y-120246376D01*
X162133216Y-120178456D01*
X161985646Y-120079853D01*
X161860147Y-119954354D01*
X161761544Y-119806784D01*
X161693624Y-119642812D01*
X161659000Y-119468741D01*
X161659000Y-119291259D01*
X161693624Y-119117188D01*
X161761544Y-118953216D01*
X161860147Y-118805646D01*
X161985646Y-118680147D01*
X162133216Y-118581544D01*
X162297188Y-118513624D01*
X162446488Y-118483927D01*
X162471258Y-118479000D01*
X162648742Y-118479000D01*
X162673512Y-118483927D01*
G37*
G36*
X116953512Y-118483927D02*
G01*
X117102812Y-118513624D01*
X117266784Y-118581544D01*
X117414354Y-118680147D01*
X117539853Y-118805646D01*
X117638456Y-118953216D01*
X117706376Y-119117188D01*
X117741000Y-119291259D01*
X117741000Y-119468741D01*
X117706376Y-119642812D01*
X117638456Y-119806784D01*
X117539853Y-119954354D01*
X117414354Y-120079853D01*
X117266784Y-120178456D01*
X117102812Y-120246376D01*
X116953512Y-120276073D01*
X116928742Y-120281000D01*
X116751258Y-120281000D01*
X116726488Y-120276073D01*
X116577188Y-120246376D01*
X116413216Y-120178456D01*
X116265646Y-120079853D01*
X116140147Y-119954354D01*
X116041544Y-119806784D01*
X115973624Y-119642812D01*
X115939000Y-119468741D01*
X115939000Y-119291259D01*
X115973624Y-119117188D01*
X116041544Y-118953216D01*
X116140147Y-118805646D01*
X116265646Y-118680147D01*
X116413216Y-118581544D01*
X116577188Y-118513624D01*
X116726488Y-118483927D01*
X116751258Y-118479000D01*
X116928742Y-118479000D01*
X116953512Y-118483927D01*
G37*
G36*
X119493512Y-118483927D02*
G01*
X119642812Y-118513624D01*
X119806784Y-118581544D01*
X119954354Y-118680147D01*
X120079853Y-118805646D01*
X120178456Y-118953216D01*
X120246376Y-119117188D01*
X120281000Y-119291259D01*
X120281000Y-119468741D01*
X120246376Y-119642812D01*
X120178456Y-119806784D01*
X120079853Y-119954354D01*
X119954354Y-120079853D01*
X119806784Y-120178456D01*
X119642812Y-120246376D01*
X119493512Y-120276073D01*
X119468742Y-120281000D01*
X119291258Y-120281000D01*
X119266488Y-120276073D01*
X119117188Y-120246376D01*
X118953216Y-120178456D01*
X118805646Y-120079853D01*
X118680147Y-119954354D01*
X118581544Y-119806784D01*
X118513624Y-119642812D01*
X118479000Y-119468741D01*
X118479000Y-119291259D01*
X118513624Y-119117188D01*
X118581544Y-118953216D01*
X118680147Y-118805646D01*
X118805646Y-118680147D01*
X118953216Y-118581544D01*
X119117188Y-118513624D01*
X119266488Y-118483927D01*
X119291258Y-118479000D01*
X119468742Y-118479000D01*
X119493512Y-118483927D01*
G37*
G36*
X160133512Y-118483927D02*
G01*
X160282812Y-118513624D01*
X160446784Y-118581544D01*
X160594354Y-118680147D01*
X160719853Y-118805646D01*
X160818456Y-118953216D01*
X160886376Y-119117188D01*
X160921000Y-119291259D01*
X160921000Y-119468741D01*
X160886376Y-119642812D01*
X160818456Y-119806784D01*
X160719853Y-119954354D01*
X160594354Y-120079853D01*
X160446784Y-120178456D01*
X160282812Y-120246376D01*
X160133512Y-120276073D01*
X160108742Y-120281000D01*
X159931258Y-120281000D01*
X159906488Y-120276073D01*
X159757188Y-120246376D01*
X159593216Y-120178456D01*
X159445646Y-120079853D01*
X159320147Y-119954354D01*
X159221544Y-119806784D01*
X159153624Y-119642812D01*
X159119000Y-119468741D01*
X159119000Y-119291259D01*
X159153624Y-119117188D01*
X159221544Y-118953216D01*
X159320147Y-118805646D01*
X159445646Y-118680147D01*
X159593216Y-118581544D01*
X159757188Y-118513624D01*
X159906488Y-118483927D01*
X159931258Y-118479000D01*
X160108742Y-118479000D01*
X160133512Y-118483927D01*
G37*
G36*
X160133512Y-115943927D02*
G01*
X160282812Y-115973624D01*
X160446784Y-116041544D01*
X160594354Y-116140147D01*
X160719853Y-116265646D01*
X160818456Y-116413216D01*
X160886376Y-116577188D01*
X160921000Y-116751259D01*
X160921000Y-116928741D01*
X160886376Y-117102812D01*
X160818456Y-117266784D01*
X160719853Y-117414354D01*
X160594354Y-117539853D01*
X160446784Y-117638456D01*
X160282812Y-117706376D01*
X160133512Y-117736073D01*
X160108742Y-117741000D01*
X159931258Y-117741000D01*
X159906488Y-117736073D01*
X159757188Y-117706376D01*
X159593216Y-117638456D01*
X159445646Y-117539853D01*
X159320147Y-117414354D01*
X159221544Y-117266784D01*
X159153624Y-117102812D01*
X159119000Y-116928741D01*
X159119000Y-116751259D01*
X159153624Y-116577188D01*
X159221544Y-116413216D01*
X159320147Y-116265646D01*
X159445646Y-116140147D01*
X159593216Y-116041544D01*
X159757188Y-115973624D01*
X159906488Y-115943927D01*
X159931258Y-115939000D01*
X160108742Y-115939000D01*
X160133512Y-115943927D01*
G37*
G36*
X116953512Y-115943927D02*
G01*
X117102812Y-115973624D01*
X117266784Y-116041544D01*
X117414354Y-116140147D01*
X117539853Y-116265646D01*
X117638456Y-116413216D01*
X117706376Y-116577188D01*
X117741000Y-116751259D01*
X117741000Y-116928741D01*
X117706376Y-117102812D01*
X117638456Y-117266784D01*
X117539853Y-117414354D01*
X117414354Y-117539853D01*
X117266784Y-117638456D01*
X117102812Y-117706376D01*
X116953512Y-117736073D01*
X116928742Y-117741000D01*
X116751258Y-117741000D01*
X116726488Y-117736073D01*
X116577188Y-117706376D01*
X116413216Y-117638456D01*
X116265646Y-117539853D01*
X116140147Y-117414354D01*
X116041544Y-117266784D01*
X115973624Y-117102812D01*
X115939000Y-116928741D01*
X115939000Y-116751259D01*
X115973624Y-116577188D01*
X116041544Y-116413216D01*
X116140147Y-116265646D01*
X116265646Y-116140147D01*
X116413216Y-116041544D01*
X116577188Y-115973624D01*
X116726488Y-115943927D01*
X116751258Y-115939000D01*
X116928742Y-115939000D01*
X116953512Y-115943927D01*
G37*
G36*
X119493512Y-115943927D02*
G01*
X119642812Y-115973624D01*
X119806784Y-116041544D01*
X119954354Y-116140147D01*
X120079853Y-116265646D01*
X120178456Y-116413216D01*
X120246376Y-116577188D01*
X120281000Y-116751259D01*
X120281000Y-116928741D01*
X120246376Y-117102812D01*
X120178456Y-117266784D01*
X120079853Y-117414354D01*
X119954354Y-117539853D01*
X119806784Y-117638456D01*
X119642812Y-117706376D01*
X119493512Y-117736073D01*
X119468742Y-117741000D01*
X119291258Y-117741000D01*
X119266488Y-117736073D01*
X119117188Y-117706376D01*
X118953216Y-117638456D01*
X118805646Y-117539853D01*
X118680147Y-117414354D01*
X118581544Y-117266784D01*
X118513624Y-117102812D01*
X118479000Y-116928741D01*
X118479000Y-116751259D01*
X118513624Y-116577188D01*
X118581544Y-116413216D01*
X118680147Y-116265646D01*
X118805646Y-116140147D01*
X118953216Y-116041544D01*
X119117188Y-115973624D01*
X119266488Y-115943927D01*
X119291258Y-115939000D01*
X119468742Y-115939000D01*
X119493512Y-115943927D01*
G37*
G36*
X162673512Y-115943927D02*
G01*
X162822812Y-115973624D01*
X162986784Y-116041544D01*
X163134354Y-116140147D01*
X163259853Y-116265646D01*
X163358456Y-116413216D01*
X163426376Y-116577188D01*
X163461000Y-116751259D01*
X163461000Y-116928741D01*
X163426376Y-117102812D01*
X163358456Y-117266784D01*
X163259853Y-117414354D01*
X163134354Y-117539853D01*
X162986784Y-117638456D01*
X162822812Y-117706376D01*
X162673512Y-117736073D01*
X162648742Y-117741000D01*
X162471258Y-117741000D01*
X162446488Y-117736073D01*
X162297188Y-117706376D01*
X162133216Y-117638456D01*
X161985646Y-117539853D01*
X161860147Y-117414354D01*
X161761544Y-117266784D01*
X161693624Y-117102812D01*
X161659000Y-116928741D01*
X161659000Y-116751259D01*
X161693624Y-116577188D01*
X161761544Y-116413216D01*
X161860147Y-116265646D01*
X161985646Y-116140147D01*
X162133216Y-116041544D01*
X162297188Y-115973624D01*
X162446488Y-115943927D01*
X162471258Y-115939000D01*
X162648742Y-115939000D01*
X162673512Y-115943927D01*
G37*
G36*
X116953512Y-113403927D02*
G01*
X117102812Y-113433624D01*
X117266784Y-113501544D01*
X117414354Y-113600147D01*
X117539853Y-113725646D01*
X117638456Y-113873216D01*
X117706376Y-114037188D01*
X117741000Y-114211259D01*
X117741000Y-114388741D01*
X117706376Y-114562812D01*
X117638456Y-114726784D01*
X117539853Y-114874354D01*
X117414354Y-114999853D01*
X117266784Y-115098456D01*
X117102812Y-115166376D01*
X116953512Y-115196073D01*
X116928742Y-115201000D01*
X116751258Y-115201000D01*
X116726488Y-115196073D01*
X116577188Y-115166376D01*
X116413216Y-115098456D01*
X116265646Y-114999853D01*
X116140147Y-114874354D01*
X116041544Y-114726784D01*
X115973624Y-114562812D01*
X115939000Y-114388741D01*
X115939000Y-114211259D01*
X115973624Y-114037188D01*
X116041544Y-113873216D01*
X116140147Y-113725646D01*
X116265646Y-113600147D01*
X116413216Y-113501544D01*
X116577188Y-113433624D01*
X116726488Y-113403927D01*
X116751258Y-113399000D01*
X116928742Y-113399000D01*
X116953512Y-113403927D01*
G37*
G36*
X119493512Y-113403927D02*
G01*
X119642812Y-113433624D01*
X119806784Y-113501544D01*
X119954354Y-113600147D01*
X120079853Y-113725646D01*
X120178456Y-113873216D01*
X120246376Y-114037188D01*
X120281000Y-114211259D01*
X120281000Y-114388741D01*
X120246376Y-114562812D01*
X120178456Y-114726784D01*
X120079853Y-114874354D01*
X119954354Y-114999853D01*
X119806784Y-115098456D01*
X119642812Y-115166376D01*
X119493512Y-115196073D01*
X119468742Y-115201000D01*
X119291258Y-115201000D01*
X119266488Y-115196073D01*
X119117188Y-115166376D01*
X118953216Y-115098456D01*
X118805646Y-114999853D01*
X118680147Y-114874354D01*
X118581544Y-114726784D01*
X118513624Y-114562812D01*
X118479000Y-114388741D01*
X118479000Y-114211259D01*
X118513624Y-114037188D01*
X118581544Y-113873216D01*
X118680147Y-113725646D01*
X118805646Y-113600147D01*
X118953216Y-113501544D01*
X119117188Y-113433624D01*
X119266488Y-113403927D01*
X119291258Y-113399000D01*
X119468742Y-113399000D01*
X119493512Y-113403927D01*
G37*
G36*
X160133512Y-113403927D02*
G01*
X160282812Y-113433624D01*
X160446784Y-113501544D01*
X160594354Y-113600147D01*
X160719853Y-113725646D01*
X160818456Y-113873216D01*
X160886376Y-114037188D01*
X160921000Y-114211259D01*
X160921000Y-114388741D01*
X160886376Y-114562812D01*
X160818456Y-114726784D01*
X160719853Y-114874354D01*
X160594354Y-114999853D01*
X160446784Y-115098456D01*
X160282812Y-115166376D01*
X160133512Y-115196073D01*
X160108742Y-115201000D01*
X159931258Y-115201000D01*
X159906488Y-115196073D01*
X159757188Y-115166376D01*
X159593216Y-115098456D01*
X159445646Y-114999853D01*
X159320147Y-114874354D01*
X159221544Y-114726784D01*
X159153624Y-114562812D01*
X159119000Y-114388741D01*
X159119000Y-114211259D01*
X159153624Y-114037188D01*
X159221544Y-113873216D01*
X159320147Y-113725646D01*
X159445646Y-113600147D01*
X159593216Y-113501544D01*
X159757188Y-113433624D01*
X159906488Y-113403927D01*
X159931258Y-113399000D01*
X160108742Y-113399000D01*
X160133512Y-113403927D01*
G37*
G36*
X162673512Y-113403927D02*
G01*
X162822812Y-113433624D01*
X162986784Y-113501544D01*
X163134354Y-113600147D01*
X163259853Y-113725646D01*
X163358456Y-113873216D01*
X163426376Y-114037188D01*
X163461000Y-114211259D01*
X163461000Y-114388741D01*
X163426376Y-114562812D01*
X163358456Y-114726784D01*
X163259853Y-114874354D01*
X163134354Y-114999853D01*
X162986784Y-115098456D01*
X162822812Y-115166376D01*
X162673512Y-115196073D01*
X162648742Y-115201000D01*
X162471258Y-115201000D01*
X162446488Y-115196073D01*
X162297188Y-115166376D01*
X162133216Y-115098456D01*
X161985646Y-114999853D01*
X161860147Y-114874354D01*
X161761544Y-114726784D01*
X161693624Y-114562812D01*
X161659000Y-114388741D01*
X161659000Y-114211259D01*
X161693624Y-114037188D01*
X161761544Y-113873216D01*
X161860147Y-113725646D01*
X161985646Y-113600147D01*
X162133216Y-113501544D01*
X162297188Y-113433624D01*
X162446488Y-113403927D01*
X162471258Y-113399000D01*
X162648742Y-113399000D01*
X162673512Y-113403927D01*
G37*
G36*
X162673512Y-110863927D02*
G01*
X162822812Y-110893624D01*
X162986784Y-110961544D01*
X163134354Y-111060147D01*
X163259853Y-111185646D01*
X163358456Y-111333216D01*
X163426376Y-111497188D01*
X163461000Y-111671259D01*
X163461000Y-111848741D01*
X163426376Y-112022812D01*
X163358456Y-112186784D01*
X163259853Y-112334354D01*
X163134354Y-112459853D01*
X162986784Y-112558456D01*
X162822812Y-112626376D01*
X162673512Y-112656073D01*
X162648742Y-112661000D01*
X162471258Y-112661000D01*
X162446488Y-112656073D01*
X162297188Y-112626376D01*
X162133216Y-112558456D01*
X161985646Y-112459853D01*
X161860147Y-112334354D01*
X161761544Y-112186784D01*
X161693624Y-112022812D01*
X161659000Y-111848741D01*
X161659000Y-111671259D01*
X161693624Y-111497188D01*
X161761544Y-111333216D01*
X161860147Y-111185646D01*
X161985646Y-111060147D01*
X162133216Y-110961544D01*
X162297188Y-110893624D01*
X162446488Y-110863927D01*
X162471258Y-110859000D01*
X162648742Y-110859000D01*
X162673512Y-110863927D01*
G37*
G36*
X160133512Y-110863927D02*
G01*
X160282812Y-110893624D01*
X160446784Y-110961544D01*
X160594354Y-111060147D01*
X160719853Y-111185646D01*
X160818456Y-111333216D01*
X160886376Y-111497188D01*
X160921000Y-111671259D01*
X160921000Y-111848741D01*
X160886376Y-112022812D01*
X160818456Y-112186784D01*
X160719853Y-112334354D01*
X160594354Y-112459853D01*
X160446784Y-112558456D01*
X160282812Y-112626376D01*
X160133512Y-112656073D01*
X160108742Y-112661000D01*
X159931258Y-112661000D01*
X159906488Y-112656073D01*
X159757188Y-112626376D01*
X159593216Y-112558456D01*
X159445646Y-112459853D01*
X159320147Y-112334354D01*
X159221544Y-112186784D01*
X159153624Y-112022812D01*
X159119000Y-111848741D01*
X159119000Y-111671259D01*
X159153624Y-111497188D01*
X159221544Y-111333216D01*
X159320147Y-111185646D01*
X159445646Y-111060147D01*
X159593216Y-110961544D01*
X159757188Y-110893624D01*
X159906488Y-110863927D01*
X159931258Y-110859000D01*
X160108742Y-110859000D01*
X160133512Y-110863927D01*
G37*
G36*
X119493512Y-110863927D02*
G01*
X119642812Y-110893624D01*
X119806784Y-110961544D01*
X119954354Y-111060147D01*
X120079853Y-111185646D01*
X120178456Y-111333216D01*
X120246376Y-111497188D01*
X120281000Y-111671259D01*
X120281000Y-111848741D01*
X120246376Y-112022812D01*
X120178456Y-112186784D01*
X120079853Y-112334354D01*
X119954354Y-112459853D01*
X119806784Y-112558456D01*
X119642812Y-112626376D01*
X119493512Y-112656073D01*
X119468742Y-112661000D01*
X119291258Y-112661000D01*
X119266488Y-112656073D01*
X119117188Y-112626376D01*
X118953216Y-112558456D01*
X118805646Y-112459853D01*
X118680147Y-112334354D01*
X118581544Y-112186784D01*
X118513624Y-112022812D01*
X118479000Y-111848741D01*
X118479000Y-111671259D01*
X118513624Y-111497188D01*
X118581544Y-111333216D01*
X118680147Y-111185646D01*
X118805646Y-111060147D01*
X118953216Y-110961544D01*
X119117188Y-110893624D01*
X119266488Y-110863927D01*
X119291258Y-110859000D01*
X119468742Y-110859000D01*
X119493512Y-110863927D01*
G37*
G36*
X116953512Y-110863927D02*
G01*
X117102812Y-110893624D01*
X117266784Y-110961544D01*
X117414354Y-111060147D01*
X117539853Y-111185646D01*
X117638456Y-111333216D01*
X117706376Y-111497188D01*
X117741000Y-111671259D01*
X117741000Y-111848741D01*
X117706376Y-112022812D01*
X117638456Y-112186784D01*
X117539853Y-112334354D01*
X117414354Y-112459853D01*
X117266784Y-112558456D01*
X117102812Y-112626376D01*
X116953512Y-112656073D01*
X116928742Y-112661000D01*
X116751258Y-112661000D01*
X116726488Y-112656073D01*
X116577188Y-112626376D01*
X116413216Y-112558456D01*
X116265646Y-112459853D01*
X116140147Y-112334354D01*
X116041544Y-112186784D01*
X115973624Y-112022812D01*
X115939000Y-111848741D01*
X115939000Y-111671259D01*
X115973624Y-111497188D01*
X116041544Y-111333216D01*
X116140147Y-111185646D01*
X116265646Y-111060147D01*
X116413216Y-110961544D01*
X116577188Y-110893624D01*
X116726488Y-110863927D01*
X116751258Y-110859000D01*
X116928742Y-110859000D01*
X116953512Y-110863927D01*
G37*
G36*
X162673512Y-108323927D02*
G01*
X162822812Y-108353624D01*
X162986784Y-108421544D01*
X163134354Y-108520147D01*
X163259853Y-108645646D01*
X163358456Y-108793216D01*
X163426376Y-108957188D01*
X163461000Y-109131259D01*
X163461000Y-109308741D01*
X163426376Y-109482812D01*
X163358456Y-109646784D01*
X163259853Y-109794354D01*
X163134354Y-109919853D01*
X162986784Y-110018456D01*
X162822812Y-110086376D01*
X162673512Y-110116073D01*
X162648742Y-110121000D01*
X162471258Y-110121000D01*
X162446488Y-110116073D01*
X162297188Y-110086376D01*
X162133216Y-110018456D01*
X161985646Y-109919853D01*
X161860147Y-109794354D01*
X161761544Y-109646784D01*
X161693624Y-109482812D01*
X161659000Y-109308741D01*
X161659000Y-109131259D01*
X161693624Y-108957188D01*
X161761544Y-108793216D01*
X161860147Y-108645646D01*
X161985646Y-108520147D01*
X162133216Y-108421544D01*
X162297188Y-108353624D01*
X162446488Y-108323927D01*
X162471258Y-108319000D01*
X162648742Y-108319000D01*
X162673512Y-108323927D01*
G37*
G36*
X160133512Y-108323927D02*
G01*
X160282812Y-108353624D01*
X160446784Y-108421544D01*
X160594354Y-108520147D01*
X160719853Y-108645646D01*
X160818456Y-108793216D01*
X160886376Y-108957188D01*
X160921000Y-109131259D01*
X160921000Y-109308741D01*
X160886376Y-109482812D01*
X160818456Y-109646784D01*
X160719853Y-109794354D01*
X160594354Y-109919853D01*
X160446784Y-110018456D01*
X160282812Y-110086376D01*
X160133512Y-110116073D01*
X160108742Y-110121000D01*
X159931258Y-110121000D01*
X159906488Y-110116073D01*
X159757188Y-110086376D01*
X159593216Y-110018456D01*
X159445646Y-109919853D01*
X159320147Y-109794354D01*
X159221544Y-109646784D01*
X159153624Y-109482812D01*
X159119000Y-109308741D01*
X159119000Y-109131259D01*
X159153624Y-108957188D01*
X159221544Y-108793216D01*
X159320147Y-108645646D01*
X159445646Y-108520147D01*
X159593216Y-108421544D01*
X159757188Y-108353624D01*
X159906488Y-108323927D01*
X159931258Y-108319000D01*
X160108742Y-108319000D01*
X160133512Y-108323927D01*
G37*
G36*
X116953512Y-108323927D02*
G01*
X117102812Y-108353624D01*
X117266784Y-108421544D01*
X117414354Y-108520147D01*
X117539853Y-108645646D01*
X117638456Y-108793216D01*
X117706376Y-108957188D01*
X117741000Y-109131259D01*
X117741000Y-109308741D01*
X117706376Y-109482812D01*
X117638456Y-109646784D01*
X117539853Y-109794354D01*
X117414354Y-109919853D01*
X117266784Y-110018456D01*
X117102812Y-110086376D01*
X116953512Y-110116073D01*
X116928742Y-110121000D01*
X116751258Y-110121000D01*
X116726488Y-110116073D01*
X116577188Y-110086376D01*
X116413216Y-110018456D01*
X116265646Y-109919853D01*
X116140147Y-109794354D01*
X116041544Y-109646784D01*
X115973624Y-109482812D01*
X115939000Y-109308741D01*
X115939000Y-109131259D01*
X115973624Y-108957188D01*
X116041544Y-108793216D01*
X116140147Y-108645646D01*
X116265646Y-108520147D01*
X116413216Y-108421544D01*
X116577188Y-108353624D01*
X116726488Y-108323927D01*
X116751258Y-108319000D01*
X116928742Y-108319000D01*
X116953512Y-108323927D01*
G37*
G36*
X119493512Y-108323927D02*
G01*
X119642812Y-108353624D01*
X119806784Y-108421544D01*
X119954354Y-108520147D01*
X120079853Y-108645646D01*
X120178456Y-108793216D01*
X120246376Y-108957188D01*
X120281000Y-109131259D01*
X120281000Y-109308741D01*
X120246376Y-109482812D01*
X120178456Y-109646784D01*
X120079853Y-109794354D01*
X119954354Y-109919853D01*
X119806784Y-110018456D01*
X119642812Y-110086376D01*
X119493512Y-110116073D01*
X119468742Y-110121000D01*
X119291258Y-110121000D01*
X119266488Y-110116073D01*
X119117188Y-110086376D01*
X118953216Y-110018456D01*
X118805646Y-109919853D01*
X118680147Y-109794354D01*
X118581544Y-109646784D01*
X118513624Y-109482812D01*
X118479000Y-109308741D01*
X118479000Y-109131259D01*
X118513624Y-108957188D01*
X118581544Y-108793216D01*
X118680147Y-108645646D01*
X118805646Y-108520147D01*
X118953216Y-108421544D01*
X119117188Y-108353624D01*
X119266488Y-108323927D01*
X119291258Y-108319000D01*
X119468742Y-108319000D01*
X119493512Y-108323927D01*
G37*
G36*
X117741000Y-107581000D02*
G01*
X115939000Y-107581000D01*
X115939000Y-105779000D01*
X117741000Y-105779000D01*
X117741000Y-107581000D01*
G37*
G36*
X162673512Y-105783927D02*
G01*
X162822812Y-105813624D01*
X162986784Y-105881544D01*
X163134354Y-105980147D01*
X163259853Y-106105646D01*
X163358456Y-106253216D01*
X163426376Y-106417188D01*
X163461000Y-106591259D01*
X163461000Y-106768741D01*
X163426376Y-106942812D01*
X163358456Y-107106784D01*
X163259853Y-107254354D01*
X163134354Y-107379853D01*
X162986784Y-107478456D01*
X162822812Y-107546376D01*
X162673512Y-107576073D01*
X162648742Y-107581000D01*
X162471258Y-107581000D01*
X162446488Y-107576073D01*
X162297188Y-107546376D01*
X162133216Y-107478456D01*
X161985646Y-107379853D01*
X161860147Y-107254354D01*
X161761544Y-107106784D01*
X161693624Y-106942812D01*
X161659000Y-106768741D01*
X161659000Y-106591259D01*
X161693624Y-106417188D01*
X161761544Y-106253216D01*
X161860147Y-106105646D01*
X161985646Y-105980147D01*
X162133216Y-105881544D01*
X162297188Y-105813624D01*
X162446488Y-105783927D01*
X162471258Y-105779000D01*
X162648742Y-105779000D01*
X162673512Y-105783927D01*
G37*
G36*
X160921000Y-107581000D02*
G01*
X159119000Y-107581000D01*
X159119000Y-105779000D01*
X160921000Y-105779000D01*
X160921000Y-107581000D01*
G37*
G36*
X119493512Y-105783927D02*
G01*
X119642812Y-105813624D01*
X119806784Y-105881544D01*
X119954354Y-105980147D01*
X120079853Y-106105646D01*
X120178456Y-106253216D01*
X120246376Y-106417188D01*
X120281000Y-106591259D01*
X120281000Y-106768741D01*
X120246376Y-106942812D01*
X120178456Y-107106784D01*
X120079853Y-107254354D01*
X119954354Y-107379853D01*
X119806784Y-107478456D01*
X119642812Y-107546376D01*
X119493512Y-107576073D01*
X119468742Y-107581000D01*
X119291258Y-107581000D01*
X119266488Y-107576073D01*
X119117188Y-107546376D01*
X118953216Y-107478456D01*
X118805646Y-107379853D01*
X118680147Y-107254354D01*
X118581544Y-107106784D01*
X118513624Y-106942812D01*
X118479000Y-106768741D01*
X118479000Y-106591259D01*
X118513624Y-106417188D01*
X118581544Y-106253216D01*
X118680147Y-106105646D01*
X118805646Y-105980147D01*
X118953216Y-105881544D01*
X119117188Y-105813624D01*
X119266488Y-105783927D01*
X119291258Y-105779000D01*
X119468742Y-105779000D01*
X119493512Y-105783927D01*
G37*
G36*
X166701740Y-100539627D02*
G01*
X166750136Y-100549253D01*
X166787902Y-100564896D01*
X166841311Y-100587019D01*
X166841312Y-100587020D01*
X166923369Y-100641848D01*
X166993152Y-100711631D01*
X166993153Y-100711633D01*
X167047981Y-100793689D01*
X167085747Y-100884865D01*
X167105000Y-100981655D01*
X167105000Y-101080345D01*
X167085747Y-101177135D01*
X167047981Y-101268311D01*
X167047980Y-101268312D01*
X166993152Y-101350369D01*
X166923369Y-101420152D01*
X166882062Y-101447752D01*
X166841311Y-101474981D01*
X166787902Y-101497104D01*
X166750136Y-101512747D01*
X166701740Y-101522373D01*
X166653345Y-101532000D01*
X166554655Y-101532000D01*
X166506260Y-101522373D01*
X166457864Y-101512747D01*
X166420098Y-101497104D01*
X166366689Y-101474981D01*
X166325938Y-101447752D01*
X166284631Y-101420152D01*
X166214848Y-101350369D01*
X166160020Y-101268312D01*
X166160019Y-101268311D01*
X166122253Y-101177135D01*
X166103000Y-101080345D01*
X166103000Y-100981655D01*
X166122253Y-100884865D01*
X166160019Y-100793689D01*
X166214847Y-100711633D01*
X166214848Y-100711631D01*
X166284631Y-100641848D01*
X166366688Y-100587020D01*
X166366689Y-100587019D01*
X166420098Y-100564896D01*
X166457864Y-100549253D01*
X166506260Y-100539627D01*
X166554655Y-100530000D01*
X166653345Y-100530000D01*
X166701740Y-100539627D01*
G37*
G36*
X112915740Y-100480626D02*
G01*
X112964136Y-100490253D01*
X113001902Y-100505896D01*
X113055311Y-100528019D01*
X113087090Y-100549253D01*
X113137369Y-100582848D01*
X113207152Y-100652631D01*
X113207153Y-100652633D01*
X113261981Y-100734689D01*
X113299747Y-100825865D01*
X113319000Y-100922655D01*
X113319000Y-101021345D01*
X113299747Y-101118135D01*
X113261981Y-101209311D01*
X113261980Y-101209312D01*
X113207152Y-101291369D01*
X113137369Y-101361152D01*
X113096062Y-101388752D01*
X113055311Y-101415981D01*
X113001902Y-101438104D01*
X112964136Y-101453747D01*
X112915740Y-101463373D01*
X112867345Y-101473000D01*
X112768655Y-101473000D01*
X112720260Y-101463374D01*
X112671864Y-101453747D01*
X112634098Y-101438104D01*
X112580689Y-101415981D01*
X112539938Y-101388752D01*
X112498631Y-101361152D01*
X112428848Y-101291369D01*
X112374020Y-101209312D01*
X112374019Y-101209311D01*
X112336253Y-101118135D01*
X112317000Y-101021345D01*
X112317000Y-100922655D01*
X112336253Y-100825865D01*
X112374019Y-100734689D01*
X112428847Y-100652633D01*
X112428848Y-100652631D01*
X112498631Y-100582848D01*
X112548910Y-100549253D01*
X112580689Y-100528019D01*
X112634098Y-100505896D01*
X112671864Y-100490253D01*
X112720260Y-100480626D01*
X112768655Y-100471000D01*
X112867345Y-100471000D01*
X112915740Y-100480626D01*
G37*
G36*
X166701740Y-98239626D02*
G01*
X166750136Y-98249253D01*
X166787902Y-98264896D01*
X166841311Y-98287019D01*
X166841312Y-98287020D01*
X166923369Y-98341848D01*
X166993152Y-98411631D01*
X166993153Y-98411633D01*
X167047981Y-98493689D01*
X167085747Y-98584865D01*
X167105000Y-98681655D01*
X167105000Y-98780345D01*
X167085747Y-98877135D01*
X167047981Y-98968311D01*
X167047980Y-98968312D01*
X166993152Y-99050369D01*
X166923369Y-99120152D01*
X166882062Y-99147752D01*
X166841311Y-99174981D01*
X166787902Y-99197104D01*
X166750136Y-99212747D01*
X166701740Y-99222374D01*
X166653345Y-99232000D01*
X166554655Y-99232000D01*
X166506260Y-99222374D01*
X166457864Y-99212747D01*
X166420098Y-99197104D01*
X166366689Y-99174981D01*
X166325938Y-99147752D01*
X166284631Y-99120152D01*
X166214848Y-99050369D01*
X166160020Y-98968312D01*
X166160019Y-98968311D01*
X166122253Y-98877135D01*
X166103000Y-98780345D01*
X166103000Y-98681655D01*
X166122253Y-98584865D01*
X166160019Y-98493689D01*
X166214847Y-98411633D01*
X166214848Y-98411631D01*
X166284631Y-98341848D01*
X166366688Y-98287020D01*
X166366689Y-98287019D01*
X166420098Y-98264896D01*
X166457864Y-98249253D01*
X166506260Y-98239626D01*
X166554655Y-98230000D01*
X166653345Y-98230000D01*
X166701740Y-98239626D01*
G37*
G36*
X112915740Y-98180627D02*
G01*
X112964136Y-98190253D01*
X113001902Y-98205896D01*
X113055311Y-98228019D01*
X113087090Y-98249253D01*
X113137369Y-98282848D01*
X113207152Y-98352631D01*
X113207153Y-98352633D01*
X113261981Y-98434689D01*
X113299747Y-98525865D01*
X113319000Y-98622655D01*
X113319000Y-98721345D01*
X113299747Y-98818135D01*
X113261981Y-98909311D01*
X113261980Y-98909312D01*
X113207152Y-98991369D01*
X113137369Y-99061152D01*
X113096062Y-99088752D01*
X113055311Y-99115981D01*
X113001902Y-99138104D01*
X112964136Y-99153747D01*
X112915740Y-99163373D01*
X112867345Y-99173000D01*
X112768655Y-99173000D01*
X112720260Y-99163374D01*
X112671864Y-99153747D01*
X112634098Y-99138104D01*
X112580689Y-99115981D01*
X112539938Y-99088752D01*
X112498631Y-99061152D01*
X112428848Y-98991369D01*
X112374020Y-98909312D01*
X112374019Y-98909311D01*
X112336253Y-98818135D01*
X112317000Y-98721345D01*
X112317000Y-98622655D01*
X112336253Y-98525865D01*
X112374019Y-98434689D01*
X112428847Y-98352633D01*
X112428848Y-98352631D01*
X112498631Y-98282848D01*
X112548910Y-98249253D01*
X112580689Y-98228019D01*
X112634098Y-98205896D01*
X112671864Y-98190253D01*
X112720260Y-98180627D01*
X112768655Y-98171000D01*
X112867345Y-98171000D01*
X112915740Y-98180627D01*
G37*
G36*
X132193512Y-95623927D02*
G01*
X132342812Y-95653624D01*
X132506784Y-95721544D01*
X132654354Y-95820147D01*
X132779853Y-95945646D01*
X132878456Y-96093216D01*
X132946376Y-96257188D01*
X132981000Y-96431259D01*
X132981000Y-96608741D01*
X132946376Y-96782812D01*
X132878456Y-96946784D01*
X132779853Y-97094354D01*
X132654354Y-97219853D01*
X132506784Y-97318456D01*
X132342812Y-97386376D01*
X132193512Y-97416073D01*
X132168742Y-97421000D01*
X131991258Y-97421000D01*
X131966488Y-97416073D01*
X131817188Y-97386376D01*
X131653216Y-97318456D01*
X131505646Y-97219853D01*
X131380147Y-97094354D01*
X131281544Y-96946784D01*
X131213624Y-96782812D01*
X131179000Y-96608741D01*
X131179000Y-96431259D01*
X131213624Y-96257188D01*
X131281544Y-96093216D01*
X131380147Y-95945646D01*
X131505646Y-95820147D01*
X131653216Y-95721544D01*
X131817188Y-95653624D01*
X131966488Y-95623927D01*
X131991258Y-95619000D01*
X132168742Y-95619000D01*
X132193512Y-95623927D01*
G37*
G36*
X125361000Y-97421000D02*
G01*
X123559000Y-97421000D01*
X123559000Y-95619000D01*
X125361000Y-95619000D01*
X125361000Y-97421000D01*
G37*
G36*
X127113512Y-95623927D02*
G01*
X127262812Y-95653624D01*
X127426784Y-95721544D01*
X127574354Y-95820147D01*
X127699853Y-95945646D01*
X127798456Y-96093216D01*
X127866376Y-96257188D01*
X127901000Y-96431259D01*
X127901000Y-96608741D01*
X127866376Y-96782812D01*
X127798456Y-96946784D01*
X127699853Y-97094354D01*
X127574354Y-97219853D01*
X127426784Y-97318456D01*
X127262812Y-97386376D01*
X127113512Y-97416073D01*
X127088742Y-97421000D01*
X126911258Y-97421000D01*
X126886488Y-97416073D01*
X126737188Y-97386376D01*
X126573216Y-97318456D01*
X126425646Y-97219853D01*
X126300147Y-97094354D01*
X126201544Y-96946784D01*
X126133624Y-96782812D01*
X126099000Y-96608741D01*
X126099000Y-96431259D01*
X126133624Y-96257188D01*
X126201544Y-96093216D01*
X126300147Y-95945646D01*
X126425646Y-95820147D01*
X126573216Y-95721544D01*
X126737188Y-95653624D01*
X126886488Y-95623927D01*
X126911258Y-95619000D01*
X127088742Y-95619000D01*
X127113512Y-95623927D01*
G37*
G36*
X129653512Y-95623927D02*
G01*
X129802812Y-95653624D01*
X129966784Y-95721544D01*
X130114354Y-95820147D01*
X130239853Y-95945646D01*
X130338456Y-96093216D01*
X130406376Y-96257188D01*
X130441000Y-96431259D01*
X130441000Y-96608741D01*
X130406376Y-96782812D01*
X130338456Y-96946784D01*
X130239853Y-97094354D01*
X130114354Y-97219853D01*
X129966784Y-97318456D01*
X129802812Y-97386376D01*
X129653512Y-97416073D01*
X129628742Y-97421000D01*
X129451258Y-97421000D01*
X129426488Y-97416073D01*
X129277188Y-97386376D01*
X129113216Y-97318456D01*
X128965646Y-97219853D01*
X128840147Y-97094354D01*
X128741544Y-96946784D01*
X128673624Y-96782812D01*
X128639000Y-96608741D01*
X128639000Y-96431259D01*
X128673624Y-96257188D01*
X128741544Y-96093216D01*
X128840147Y-95945646D01*
X128965646Y-95820147D01*
X129113216Y-95721544D01*
X129277188Y-95653624D01*
X129426488Y-95623927D01*
X129451258Y-95619000D01*
X129628742Y-95619000D01*
X129653512Y-95623927D01*
G37*
G36*
X134733512Y-95623927D02*
G01*
X134882812Y-95653624D01*
X135046784Y-95721544D01*
X135194354Y-95820147D01*
X135319853Y-95945646D01*
X135418456Y-96093216D01*
X135486376Y-96257188D01*
X135521000Y-96431259D01*
X135521000Y-96608741D01*
X135486376Y-96782812D01*
X135418456Y-96946784D01*
X135319853Y-97094354D01*
X135194354Y-97219853D01*
X135046784Y-97318456D01*
X134882812Y-97386376D01*
X134733512Y-97416073D01*
X134708742Y-97421000D01*
X134531258Y-97421000D01*
X134506488Y-97416073D01*
X134357188Y-97386376D01*
X134193216Y-97318456D01*
X134045646Y-97219853D01*
X133920147Y-97094354D01*
X133821544Y-96946784D01*
X133753624Y-96782812D01*
X133719000Y-96608741D01*
X133719000Y-96431259D01*
X133753624Y-96257188D01*
X133821544Y-96093216D01*
X133920147Y-95945646D01*
X134045646Y-95820147D01*
X134193216Y-95721544D01*
X134357188Y-95653624D01*
X134506488Y-95623927D01*
X134531258Y-95619000D01*
X134708742Y-95619000D01*
X134733512Y-95623927D01*
G37*
G36*
X137273512Y-95623927D02*
G01*
X137422812Y-95653624D01*
X137586784Y-95721544D01*
X137734354Y-95820147D01*
X137859853Y-95945646D01*
X137958456Y-96093216D01*
X138026376Y-96257188D01*
X138061000Y-96431259D01*
X138061000Y-96608741D01*
X138026376Y-96782812D01*
X137958456Y-96946784D01*
X137859853Y-97094354D01*
X137734354Y-97219853D01*
X137586784Y-97318456D01*
X137422812Y-97386376D01*
X137273512Y-97416073D01*
X137248742Y-97421000D01*
X137071258Y-97421000D01*
X137046488Y-97416073D01*
X136897188Y-97386376D01*
X136733216Y-97318456D01*
X136585646Y-97219853D01*
X136460147Y-97094354D01*
X136361544Y-96946784D01*
X136293624Y-96782812D01*
X136259000Y-96608741D01*
X136259000Y-96431259D01*
X136293624Y-96257188D01*
X136361544Y-96093216D01*
X136460147Y-95945646D01*
X136585646Y-95820147D01*
X136733216Y-95721544D01*
X136897188Y-95653624D01*
X137046488Y-95623927D01*
X137071258Y-95619000D01*
X137248742Y-95619000D01*
X137273512Y-95623927D01*
G37*
G36*
X139813512Y-95623927D02*
G01*
X139962812Y-95653624D01*
X140126784Y-95721544D01*
X140274354Y-95820147D01*
X140399853Y-95945646D01*
X140498456Y-96093216D01*
X140566376Y-96257188D01*
X140601000Y-96431259D01*
X140601000Y-96608741D01*
X140566376Y-96782812D01*
X140498456Y-96946784D01*
X140399853Y-97094354D01*
X140274354Y-97219853D01*
X140126784Y-97318456D01*
X139962812Y-97386376D01*
X139813512Y-97416073D01*
X139788742Y-97421000D01*
X139611258Y-97421000D01*
X139586488Y-97416073D01*
X139437188Y-97386376D01*
X139273216Y-97318456D01*
X139125646Y-97219853D01*
X139000147Y-97094354D01*
X138901544Y-96946784D01*
X138833624Y-96782812D01*
X138799000Y-96608741D01*
X138799000Y-96431259D01*
X138833624Y-96257188D01*
X138901544Y-96093216D01*
X139000147Y-95945646D01*
X139125646Y-95820147D01*
X139273216Y-95721544D01*
X139437188Y-95653624D01*
X139586488Y-95623927D01*
X139611258Y-95619000D01*
X139788742Y-95619000D01*
X139813512Y-95623927D01*
G37*
G36*
X142353512Y-95623927D02*
G01*
X142502812Y-95653624D01*
X142666784Y-95721544D01*
X142814354Y-95820147D01*
X142939853Y-95945646D01*
X143038456Y-96093216D01*
X143106376Y-96257188D01*
X143141000Y-96431259D01*
X143141000Y-96608741D01*
X143106376Y-96782812D01*
X143038456Y-96946784D01*
X142939853Y-97094354D01*
X142814354Y-97219853D01*
X142666784Y-97318456D01*
X142502812Y-97386376D01*
X142353512Y-97416073D01*
X142328742Y-97421000D01*
X142151258Y-97421000D01*
X142126488Y-97416073D01*
X141977188Y-97386376D01*
X141813216Y-97318456D01*
X141665646Y-97219853D01*
X141540147Y-97094354D01*
X141441544Y-96946784D01*
X141373624Y-96782812D01*
X141339000Y-96608741D01*
X141339000Y-96431259D01*
X141373624Y-96257188D01*
X141441544Y-96093216D01*
X141540147Y-95945646D01*
X141665646Y-95820147D01*
X141813216Y-95721544D01*
X141977188Y-95653624D01*
X142126488Y-95623927D01*
X142151258Y-95619000D01*
X142328742Y-95619000D01*
X142353512Y-95623927D01*
G37*
G36*
X142353512Y-93083927D02*
G01*
X142502812Y-93113624D01*
X142666784Y-93181544D01*
X142814354Y-93280147D01*
X142939853Y-93405646D01*
X143038456Y-93553216D01*
X143106376Y-93717188D01*
X143141000Y-93891259D01*
X143141000Y-94068741D01*
X143106376Y-94242812D01*
X143038456Y-94406784D01*
X142939853Y-94554354D01*
X142814354Y-94679853D01*
X142666784Y-94778456D01*
X142502812Y-94846376D01*
X142353512Y-94876073D01*
X142328742Y-94881000D01*
X142151258Y-94881000D01*
X142126488Y-94876073D01*
X141977188Y-94846376D01*
X141813216Y-94778456D01*
X141665646Y-94679853D01*
X141540147Y-94554354D01*
X141441544Y-94406784D01*
X141373624Y-94242812D01*
X141339000Y-94068741D01*
X141339000Y-93891259D01*
X141373624Y-93717188D01*
X141441544Y-93553216D01*
X141540147Y-93405646D01*
X141665646Y-93280147D01*
X141813216Y-93181544D01*
X141977188Y-93113624D01*
X142126488Y-93083927D01*
X142151258Y-93079000D01*
X142328742Y-93079000D01*
X142353512Y-93083927D01*
G37*
G36*
X124573512Y-93083927D02*
G01*
X124722812Y-93113624D01*
X124886784Y-93181544D01*
X125034354Y-93280147D01*
X125159853Y-93405646D01*
X125258456Y-93553216D01*
X125326376Y-93717188D01*
X125361000Y-93891259D01*
X125361000Y-94068741D01*
X125326376Y-94242812D01*
X125258456Y-94406784D01*
X125159853Y-94554354D01*
X125034354Y-94679853D01*
X124886784Y-94778456D01*
X124722812Y-94846376D01*
X124573512Y-94876073D01*
X124548742Y-94881000D01*
X124371258Y-94881000D01*
X124346488Y-94876073D01*
X124197188Y-94846376D01*
X124033216Y-94778456D01*
X123885646Y-94679853D01*
X123760147Y-94554354D01*
X123661544Y-94406784D01*
X123593624Y-94242812D01*
X123559000Y-94068741D01*
X123559000Y-93891259D01*
X123593624Y-93717188D01*
X123661544Y-93553216D01*
X123760147Y-93405646D01*
X123885646Y-93280147D01*
X124033216Y-93181544D01*
X124197188Y-93113624D01*
X124346488Y-93083927D01*
X124371258Y-93079000D01*
X124548742Y-93079000D01*
X124573512Y-93083927D01*
G37*
G36*
X127113512Y-93083927D02*
G01*
X127262812Y-93113624D01*
X127426784Y-93181544D01*
X127574354Y-93280147D01*
X127699853Y-93405646D01*
X127798456Y-93553216D01*
X127866376Y-93717188D01*
X127901000Y-93891259D01*
X127901000Y-94068741D01*
X127866376Y-94242812D01*
X127798456Y-94406784D01*
X127699853Y-94554354D01*
X127574354Y-94679853D01*
X127426784Y-94778456D01*
X127262812Y-94846376D01*
X127113512Y-94876073D01*
X127088742Y-94881000D01*
X126911258Y-94881000D01*
X126886488Y-94876073D01*
X126737188Y-94846376D01*
X126573216Y-94778456D01*
X126425646Y-94679853D01*
X126300147Y-94554354D01*
X126201544Y-94406784D01*
X126133624Y-94242812D01*
X126099000Y-94068741D01*
X126099000Y-93891259D01*
X126133624Y-93717188D01*
X126201544Y-93553216D01*
X126300147Y-93405646D01*
X126425646Y-93280147D01*
X126573216Y-93181544D01*
X126737188Y-93113624D01*
X126886488Y-93083927D01*
X126911258Y-93079000D01*
X127088742Y-93079000D01*
X127113512Y-93083927D01*
G37*
G36*
X129653512Y-93083927D02*
G01*
X129802812Y-93113624D01*
X129966784Y-93181544D01*
X130114354Y-93280147D01*
X130239853Y-93405646D01*
X130338456Y-93553216D01*
X130406376Y-93717188D01*
X130441000Y-93891259D01*
X130441000Y-94068741D01*
X130406376Y-94242812D01*
X130338456Y-94406784D01*
X130239853Y-94554354D01*
X130114354Y-94679853D01*
X129966784Y-94778456D01*
X129802812Y-94846376D01*
X129653512Y-94876073D01*
X129628742Y-94881000D01*
X129451258Y-94881000D01*
X129426488Y-94876073D01*
X129277188Y-94846376D01*
X129113216Y-94778456D01*
X128965646Y-94679853D01*
X128840147Y-94554354D01*
X128741544Y-94406784D01*
X128673624Y-94242812D01*
X128639000Y-94068741D01*
X128639000Y-93891259D01*
X128673624Y-93717188D01*
X128741544Y-93553216D01*
X128840147Y-93405646D01*
X128965646Y-93280147D01*
X129113216Y-93181544D01*
X129277188Y-93113624D01*
X129426488Y-93083927D01*
X129451258Y-93079000D01*
X129628742Y-93079000D01*
X129653512Y-93083927D01*
G37*
G36*
X137273512Y-93083927D02*
G01*
X137422812Y-93113624D01*
X137586784Y-93181544D01*
X137734354Y-93280147D01*
X137859853Y-93405646D01*
X137958456Y-93553216D01*
X138026376Y-93717188D01*
X138061000Y-93891259D01*
X138061000Y-94068741D01*
X138026376Y-94242812D01*
X137958456Y-94406784D01*
X137859853Y-94554354D01*
X137734354Y-94679853D01*
X137586784Y-94778456D01*
X137422812Y-94846376D01*
X137273512Y-94876073D01*
X137248742Y-94881000D01*
X137071258Y-94881000D01*
X137046488Y-94876073D01*
X136897188Y-94846376D01*
X136733216Y-94778456D01*
X136585646Y-94679853D01*
X136460147Y-94554354D01*
X136361544Y-94406784D01*
X136293624Y-94242812D01*
X136259000Y-94068741D01*
X136259000Y-93891259D01*
X136293624Y-93717188D01*
X136361544Y-93553216D01*
X136460147Y-93405646D01*
X136585646Y-93280147D01*
X136733216Y-93181544D01*
X136897188Y-93113624D01*
X137046488Y-93083927D01*
X137071258Y-93079000D01*
X137248742Y-93079000D01*
X137273512Y-93083927D01*
G37*
G36*
X139813512Y-93083927D02*
G01*
X139962812Y-93113624D01*
X140126784Y-93181544D01*
X140274354Y-93280147D01*
X140399853Y-93405646D01*
X140498456Y-93553216D01*
X140566376Y-93717188D01*
X140601000Y-93891259D01*
X140601000Y-94068741D01*
X140566376Y-94242812D01*
X140498456Y-94406784D01*
X140399853Y-94554354D01*
X140274354Y-94679853D01*
X140126784Y-94778456D01*
X139962812Y-94846376D01*
X139813512Y-94876073D01*
X139788742Y-94881000D01*
X139611258Y-94881000D01*
X139586488Y-94876073D01*
X139437188Y-94846376D01*
X139273216Y-94778456D01*
X139125646Y-94679853D01*
X139000147Y-94554354D01*
X138901544Y-94406784D01*
X138833624Y-94242812D01*
X138799000Y-94068741D01*
X138799000Y-93891259D01*
X138833624Y-93717188D01*
X138901544Y-93553216D01*
X139000147Y-93405646D01*
X139125646Y-93280147D01*
X139273216Y-93181544D01*
X139437188Y-93113624D01*
X139586488Y-93083927D01*
X139611258Y-93079000D01*
X139788742Y-93079000D01*
X139813512Y-93083927D01*
G37*
G36*
X134733512Y-93083927D02*
G01*
X134882812Y-93113624D01*
X135046784Y-93181544D01*
X135194354Y-93280147D01*
X135319853Y-93405646D01*
X135418456Y-93553216D01*
X135486376Y-93717188D01*
X135521000Y-93891259D01*
X135521000Y-94068741D01*
X135486376Y-94242812D01*
X135418456Y-94406784D01*
X135319853Y-94554354D01*
X135194354Y-94679853D01*
X135046784Y-94778456D01*
X134882812Y-94846376D01*
X134733512Y-94876073D01*
X134708742Y-94881000D01*
X134531258Y-94881000D01*
X134506488Y-94876073D01*
X134357188Y-94846376D01*
X134193216Y-94778456D01*
X134045646Y-94679853D01*
X133920147Y-94554354D01*
X133821544Y-94406784D01*
X133753624Y-94242812D01*
X133719000Y-94068741D01*
X133719000Y-93891259D01*
X133753624Y-93717188D01*
X133821544Y-93553216D01*
X133920147Y-93405646D01*
X134045646Y-93280147D01*
X134193216Y-93181544D01*
X134357188Y-93113624D01*
X134506488Y-93083927D01*
X134531258Y-93079000D01*
X134708742Y-93079000D01*
X134733512Y-93083927D01*
G37*
G36*
X132193512Y-93083927D02*
G01*
X132342812Y-93113624D01*
X132506784Y-93181544D01*
X132654354Y-93280147D01*
X132779853Y-93405646D01*
X132878456Y-93553216D01*
X132946376Y-93717188D01*
X132981000Y-93891259D01*
X132981000Y-94068741D01*
X132946376Y-94242812D01*
X132878456Y-94406784D01*
X132779853Y-94554354D01*
X132654354Y-94679853D01*
X132506784Y-94778456D01*
X132342812Y-94846376D01*
X132193512Y-94876073D01*
X132168742Y-94881000D01*
X131991258Y-94881000D01*
X131966488Y-94876073D01*
X131817188Y-94846376D01*
X131653216Y-94778456D01*
X131505646Y-94679853D01*
X131380147Y-94554354D01*
X131281544Y-94406784D01*
X131213624Y-94242812D01*
X131179000Y-94068741D01*
X131179000Y-93891259D01*
X131213624Y-93717188D01*
X131281544Y-93553216D01*
X131380147Y-93405646D01*
X131505646Y-93280147D01*
X131653216Y-93181544D01*
X131817188Y-93113624D01*
X131966488Y-93083927D01*
X131991258Y-93079000D01*
X132168742Y-93079000D01*
X132193512Y-93083927D01*
G37*
G36*
X162673512Y-90543927D02*
G01*
X162822812Y-90573624D01*
X162986784Y-90641544D01*
X163134354Y-90740147D01*
X163259853Y-90865646D01*
X163358456Y-91013216D01*
X163426376Y-91177188D01*
X163461000Y-91351259D01*
X163461000Y-91528741D01*
X163426376Y-91702812D01*
X163358456Y-91866784D01*
X163259853Y-92014354D01*
X163134354Y-92139853D01*
X162986784Y-92238456D01*
X162822812Y-92306376D01*
X162673512Y-92336073D01*
X162648742Y-92341000D01*
X162471258Y-92341000D01*
X162446488Y-92336073D01*
X162297188Y-92306376D01*
X162133216Y-92238456D01*
X161985646Y-92139853D01*
X161860147Y-92014354D01*
X161761544Y-91866784D01*
X161693624Y-91702812D01*
X161659000Y-91528741D01*
X161659000Y-91351259D01*
X161693624Y-91177188D01*
X161761544Y-91013216D01*
X161860147Y-90865646D01*
X161985646Y-90740147D01*
X162133216Y-90641544D01*
X162297188Y-90573624D01*
X162446488Y-90543927D01*
X162471258Y-90539000D01*
X162648742Y-90539000D01*
X162673512Y-90543927D01*
G37*
G36*
X166001000Y-92341000D02*
G01*
X164199000Y-92341000D01*
X164199000Y-90539000D01*
X166001000Y-90539000D01*
X166001000Y-92341000D01*
G37*
G36*
X165213512Y-88003927D02*
G01*
X165362812Y-88033624D01*
X165526784Y-88101544D01*
X165674354Y-88200147D01*
X165799853Y-88325646D01*
X165898456Y-88473216D01*
X165966376Y-88637188D01*
X166001000Y-88811259D01*
X166001000Y-88988741D01*
X165966376Y-89162812D01*
X165898456Y-89326784D01*
X165799853Y-89474354D01*
X165674354Y-89599853D01*
X165526784Y-89698456D01*
X165362812Y-89766376D01*
X165213512Y-89796073D01*
X165188742Y-89801000D01*
X165011258Y-89801000D01*
X164986488Y-89796073D01*
X164837188Y-89766376D01*
X164673216Y-89698456D01*
X164525646Y-89599853D01*
X164400147Y-89474354D01*
X164301544Y-89326784D01*
X164233624Y-89162812D01*
X164199000Y-88988741D01*
X164199000Y-88811259D01*
X164233624Y-88637188D01*
X164301544Y-88473216D01*
X164400147Y-88325646D01*
X164525646Y-88200147D01*
X164673216Y-88101544D01*
X164837188Y-88033624D01*
X164986488Y-88003927D01*
X165011258Y-87999000D01*
X165188742Y-87999000D01*
X165213512Y-88003927D01*
G37*
G36*
X162673512Y-88003927D02*
G01*
X162822812Y-88033624D01*
X162986784Y-88101544D01*
X163134354Y-88200147D01*
X163259853Y-88325646D01*
X163358456Y-88473216D01*
X163426376Y-88637188D01*
X163461000Y-88811259D01*
X163461000Y-88988741D01*
X163426376Y-89162812D01*
X163358456Y-89326784D01*
X163259853Y-89474354D01*
X163134354Y-89599853D01*
X162986784Y-89698456D01*
X162822812Y-89766376D01*
X162673512Y-89796073D01*
X162648742Y-89801000D01*
X162471258Y-89801000D01*
X162446488Y-89796073D01*
X162297188Y-89766376D01*
X162133216Y-89698456D01*
X161985646Y-89599853D01*
X161860147Y-89474354D01*
X161761544Y-89326784D01*
X161693624Y-89162812D01*
X161659000Y-88988741D01*
X161659000Y-88811259D01*
X161693624Y-88637188D01*
X161761544Y-88473216D01*
X161860147Y-88325646D01*
X161985646Y-88200147D01*
X162133216Y-88101544D01*
X162297188Y-88033624D01*
X162446488Y-88003927D01*
X162471258Y-87999000D01*
X162648742Y-87999000D01*
X162673512Y-88003927D01*
G37*
G36*
X165213512Y-85463927D02*
G01*
X165362812Y-85493624D01*
X165526784Y-85561544D01*
X165674354Y-85660147D01*
X165799853Y-85785646D01*
X165898456Y-85933216D01*
X165966376Y-86097188D01*
X166001000Y-86271259D01*
X166001000Y-86448741D01*
X165966376Y-86622812D01*
X165898456Y-86786784D01*
X165799853Y-86934354D01*
X165674354Y-87059853D01*
X165526784Y-87158456D01*
X165362812Y-87226376D01*
X165213512Y-87256073D01*
X165188742Y-87261000D01*
X165011258Y-87261000D01*
X164986488Y-87256073D01*
X164837188Y-87226376D01*
X164673216Y-87158456D01*
X164525646Y-87059853D01*
X164400147Y-86934354D01*
X164301544Y-86786784D01*
X164233624Y-86622812D01*
X164199000Y-86448741D01*
X164199000Y-86271259D01*
X164233624Y-86097188D01*
X164301544Y-85933216D01*
X164400147Y-85785646D01*
X164525646Y-85660147D01*
X164673216Y-85561544D01*
X164837188Y-85493624D01*
X164986488Y-85463927D01*
X165011258Y-85459000D01*
X165188742Y-85459000D01*
X165213512Y-85463927D01*
G37*
G36*
X162673512Y-85463927D02*
G01*
X162822812Y-85493624D01*
X162986784Y-85561544D01*
X163134354Y-85660147D01*
X163259853Y-85785646D01*
X163358456Y-85933216D01*
X163426376Y-86097188D01*
X163461000Y-86271259D01*
X163461000Y-86448741D01*
X163426376Y-86622812D01*
X163358456Y-86786784D01*
X163259853Y-86934354D01*
X163134354Y-87059853D01*
X162986784Y-87158456D01*
X162822812Y-87226376D01*
X162673512Y-87256073D01*
X162648742Y-87261000D01*
X162471258Y-87261000D01*
X162446488Y-87256073D01*
X162297188Y-87226376D01*
X162133216Y-87158456D01*
X161985646Y-87059853D01*
X161860147Y-86934354D01*
X161761544Y-86786784D01*
X161693624Y-86622812D01*
X161659000Y-86448741D01*
X161659000Y-86271259D01*
X161693624Y-86097188D01*
X161761544Y-85933216D01*
X161860147Y-85785646D01*
X161985646Y-85660147D01*
X162133216Y-85561544D01*
X162297188Y-85493624D01*
X162446488Y-85463927D01*
X162471258Y-85459000D01*
X162648742Y-85459000D01*
X162673512Y-85463927D01*
G37*
G36*
X112746740Y-85574626D02*
G01*
X112795136Y-85584253D01*
X112832902Y-85599896D01*
X112886311Y-85622019D01*
X112886312Y-85622020D01*
X112968369Y-85676848D01*
X113038152Y-85746631D01*
X113038153Y-85746633D01*
X113092981Y-85828689D01*
X113130747Y-85919865D01*
X113150000Y-86016655D01*
X113150000Y-86115345D01*
X113130747Y-86212135D01*
X113092981Y-86303311D01*
X113092980Y-86303312D01*
X113038152Y-86385369D01*
X112968369Y-86455152D01*
X112927062Y-86482752D01*
X112886311Y-86509981D01*
X112832902Y-86532104D01*
X112795136Y-86547747D01*
X112746740Y-86557373D01*
X112698345Y-86567000D01*
X112599655Y-86567000D01*
X112551260Y-86557373D01*
X112502864Y-86547747D01*
X112465098Y-86532104D01*
X112411689Y-86509981D01*
X112370938Y-86482752D01*
X112329631Y-86455152D01*
X112259848Y-86385369D01*
X112205020Y-86303312D01*
X112205019Y-86303311D01*
X112167253Y-86212135D01*
X112148000Y-86115345D01*
X112148000Y-86016655D01*
X112167253Y-85919865D01*
X112205019Y-85828689D01*
X112259847Y-85746633D01*
X112259848Y-85746631D01*
X112329631Y-85676848D01*
X112411688Y-85622020D01*
X112411689Y-85622019D01*
X112465098Y-85599896D01*
X112502864Y-85584253D01*
X112551260Y-85574626D01*
X112599655Y-85565000D01*
X112698345Y-85565000D01*
X112746740Y-85574626D01*
G37*
G36*
X162673512Y-82923927D02*
G01*
X162822812Y-82953624D01*
X162986784Y-83021544D01*
X163134354Y-83120147D01*
X163259853Y-83245646D01*
X163358456Y-83393216D01*
X163426376Y-83557188D01*
X163461000Y-83731259D01*
X163461000Y-83908741D01*
X163426376Y-84082812D01*
X163358456Y-84246784D01*
X163259853Y-84394354D01*
X163134354Y-84519853D01*
X162986784Y-84618456D01*
X162822812Y-84686376D01*
X162673512Y-84716073D01*
X162648742Y-84721000D01*
X162471258Y-84721000D01*
X162446488Y-84716073D01*
X162297188Y-84686376D01*
X162133216Y-84618456D01*
X161985646Y-84519853D01*
X161860147Y-84394354D01*
X161761544Y-84246784D01*
X161693624Y-84082812D01*
X161659000Y-83908741D01*
X161659000Y-83731259D01*
X161693624Y-83557188D01*
X161761544Y-83393216D01*
X161860147Y-83245646D01*
X161985646Y-83120147D01*
X162133216Y-83021544D01*
X162297188Y-82953624D01*
X162446488Y-82923927D01*
X162471258Y-82919000D01*
X162648742Y-82919000D01*
X162673512Y-82923927D01*
G37*
G36*
X165213512Y-82923927D02*
G01*
X165362812Y-82953624D01*
X165526784Y-83021544D01*
X165674354Y-83120147D01*
X165799853Y-83245646D01*
X165898456Y-83393216D01*
X165966376Y-83557188D01*
X166001000Y-83731259D01*
X166001000Y-83908741D01*
X165966376Y-84082812D01*
X165898456Y-84246784D01*
X165799853Y-84394354D01*
X165674354Y-84519853D01*
X165526784Y-84618456D01*
X165362812Y-84686376D01*
X165213512Y-84716073D01*
X165188742Y-84721000D01*
X165011258Y-84721000D01*
X164986488Y-84716073D01*
X164837188Y-84686376D01*
X164673216Y-84618456D01*
X164525646Y-84519853D01*
X164400147Y-84394354D01*
X164301544Y-84246784D01*
X164233624Y-84082812D01*
X164199000Y-83908741D01*
X164199000Y-83731259D01*
X164233624Y-83557188D01*
X164301544Y-83393216D01*
X164400147Y-83245646D01*
X164525646Y-83120147D01*
X164673216Y-83021544D01*
X164837188Y-82953624D01*
X164986488Y-82923927D01*
X165011258Y-82919000D01*
X165188742Y-82919000D01*
X165213512Y-82923927D01*
G37*
G36*
X129364142Y-81387242D02*
G01*
X129512101Y-81448529D01*
X129645255Y-81537499D01*
X129758501Y-81650745D01*
X129847471Y-81783899D01*
X129908758Y-81931858D01*
X129940000Y-82088925D01*
X129940000Y-82249075D01*
X129908758Y-82406142D01*
X129847471Y-82554101D01*
X129758501Y-82687255D01*
X129645255Y-82800501D01*
X129512101Y-82889471D01*
X129364142Y-82950758D01*
X129207075Y-82982000D01*
X129046925Y-82982000D01*
X128889858Y-82950758D01*
X128741899Y-82889471D01*
X128608745Y-82800501D01*
X128495499Y-82687255D01*
X128406529Y-82554101D01*
X128345242Y-82406142D01*
X128314000Y-82249075D01*
X128314000Y-82088925D01*
X128345242Y-81931858D01*
X128406529Y-81783899D01*
X128495499Y-81650745D01*
X128608745Y-81537499D01*
X128741899Y-81448529D01*
X128889858Y-81387242D01*
X129046925Y-81356000D01*
X129207075Y-81356000D01*
X129364142Y-81387242D01*
G37*
G36*
X127364142Y-81387242D02*
G01*
X127512101Y-81448529D01*
X127645255Y-81537499D01*
X127758501Y-81650745D01*
X127847471Y-81783899D01*
X127908758Y-81931858D01*
X127940000Y-82088925D01*
X127940000Y-82249075D01*
X127908758Y-82406142D01*
X127847471Y-82554101D01*
X127758501Y-82687255D01*
X127645255Y-82800501D01*
X127512101Y-82889471D01*
X127364142Y-82950758D01*
X127207075Y-82982000D01*
X127046925Y-82982000D01*
X126889858Y-82950758D01*
X126741899Y-82889471D01*
X126608745Y-82800501D01*
X126495499Y-82687255D01*
X126406529Y-82554101D01*
X126345242Y-82406142D01*
X126314000Y-82249075D01*
X126314000Y-82088925D01*
X126345242Y-81931858D01*
X126406529Y-81783899D01*
X126495499Y-81650745D01*
X126608745Y-81537499D01*
X126741899Y-81448529D01*
X126889858Y-81387242D01*
X127046925Y-81356000D01*
X127207075Y-81356000D01*
X127364142Y-81387242D01*
G37*
G36*
X142226512Y-80637927D02*
G01*
X142375812Y-80667624D01*
X142539784Y-80735544D01*
X142687354Y-80834147D01*
X142812853Y-80959646D01*
X142911456Y-81107216D01*
X142979376Y-81271188D01*
X143014000Y-81445259D01*
X143014000Y-81622741D01*
X142979376Y-81796812D01*
X142911456Y-81960784D01*
X142812853Y-82108354D01*
X142687354Y-82233853D01*
X142539784Y-82332456D01*
X142375812Y-82400376D01*
X142226512Y-82430073D01*
X142201742Y-82435000D01*
X142024258Y-82435000D01*
X141999488Y-82430073D01*
X141850188Y-82400376D01*
X141686216Y-82332456D01*
X141538646Y-82233853D01*
X141413147Y-82108354D01*
X141314544Y-81960784D01*
X141246624Y-81796812D01*
X141212000Y-81622741D01*
X141212000Y-81445259D01*
X141246624Y-81271188D01*
X141314544Y-81107216D01*
X141413147Y-80959646D01*
X141538646Y-80834147D01*
X141686216Y-80735544D01*
X141850188Y-80667624D01*
X141999488Y-80637927D01*
X142024258Y-80633000D01*
X142201742Y-80633000D01*
X142226512Y-80637927D01*
G37*
G36*
X140474000Y-82435000D02*
G01*
X138672000Y-82435000D01*
X138672000Y-80633000D01*
X140474000Y-80633000D01*
X140474000Y-82435000D01*
G37*
G36*
X165213512Y-80383927D02*
G01*
X165362812Y-80413624D01*
X165526784Y-80481544D01*
X165674354Y-80580147D01*
X165799853Y-80705646D01*
X165898456Y-80853216D01*
X165966376Y-81017188D01*
X166001000Y-81191259D01*
X166001000Y-81368741D01*
X165966376Y-81542812D01*
X165898456Y-81706784D01*
X165799853Y-81854354D01*
X165674354Y-81979853D01*
X165526784Y-82078456D01*
X165362812Y-82146376D01*
X165213512Y-82176073D01*
X165188742Y-82181000D01*
X165011258Y-82181000D01*
X164986488Y-82176073D01*
X164837188Y-82146376D01*
X164673216Y-82078456D01*
X164525646Y-81979853D01*
X164400147Y-81854354D01*
X164301544Y-81706784D01*
X164233624Y-81542812D01*
X164199000Y-81368741D01*
X164199000Y-81191259D01*
X164233624Y-81017188D01*
X164301544Y-80853216D01*
X164400147Y-80705646D01*
X164525646Y-80580147D01*
X164673216Y-80481544D01*
X164837188Y-80413624D01*
X164986488Y-80383927D01*
X165011258Y-80379000D01*
X165188742Y-80379000D01*
X165213512Y-80383927D01*
G37*
G36*
X162673512Y-80383927D02*
G01*
X162822812Y-80413624D01*
X162986784Y-80481544D01*
X163134354Y-80580147D01*
X163259853Y-80705646D01*
X163358456Y-80853216D01*
X163426376Y-81017188D01*
X163461000Y-81191259D01*
X163461000Y-81368741D01*
X163426376Y-81542812D01*
X163358456Y-81706784D01*
X163259853Y-81854354D01*
X163134354Y-81979853D01*
X162986784Y-82078456D01*
X162822812Y-82146376D01*
X162673512Y-82176073D01*
X162648742Y-82181000D01*
X162471258Y-82181000D01*
X162446488Y-82176073D01*
X162297188Y-82146376D01*
X162133216Y-82078456D01*
X161985646Y-81979853D01*
X161860147Y-81854354D01*
X161761544Y-81706784D01*
X161693624Y-81542812D01*
X161659000Y-81368741D01*
X161659000Y-81191259D01*
X161693624Y-81017188D01*
X161761544Y-80853216D01*
X161860147Y-80705646D01*
X161985646Y-80580147D01*
X162133216Y-80481544D01*
X162297188Y-80413624D01*
X162446488Y-80383927D01*
X162471258Y-80379000D01*
X162648742Y-80379000D01*
X162673512Y-80383927D01*
G37*
G36*
X112746740Y-80574627D02*
G01*
X112795136Y-80584253D01*
X112832902Y-80599896D01*
X112886311Y-80622019D01*
X112886312Y-80622020D01*
X112968369Y-80676848D01*
X113038152Y-80746631D01*
X113038153Y-80746633D01*
X113092981Y-80828689D01*
X113130747Y-80919865D01*
X113150000Y-81016655D01*
X113150000Y-81115345D01*
X113130747Y-81212135D01*
X113092981Y-81303311D01*
X113092980Y-81303312D01*
X113038152Y-81385369D01*
X112968369Y-81455152D01*
X112927062Y-81482752D01*
X112886311Y-81509981D01*
X112832902Y-81532104D01*
X112795136Y-81547747D01*
X112746740Y-81557374D01*
X112698345Y-81567000D01*
X112599655Y-81567000D01*
X112551260Y-81557374D01*
X112502864Y-81547747D01*
X112465098Y-81532104D01*
X112411689Y-81509981D01*
X112370938Y-81482752D01*
X112329631Y-81455152D01*
X112259848Y-81385369D01*
X112205020Y-81303312D01*
X112205019Y-81303311D01*
X112167253Y-81212135D01*
X112148000Y-81115345D01*
X112148000Y-81016655D01*
X112167253Y-80919865D01*
X112205019Y-80828689D01*
X112259847Y-80746633D01*
X112259848Y-80746631D01*
X112329631Y-80676848D01*
X112411688Y-80622020D01*
X112411689Y-80622019D01*
X112465098Y-80599896D01*
X112502864Y-80584253D01*
X112551260Y-80574627D01*
X112599655Y-80565000D01*
X112698345Y-80565000D01*
X112746740Y-80574627D01*
G37*
G36*
X162673512Y-77843927D02*
G01*
X162822812Y-77873624D01*
X162986784Y-77941544D01*
X163134354Y-78040147D01*
X163259853Y-78165646D01*
X163358456Y-78313216D01*
X163426376Y-78477188D01*
X163461000Y-78651259D01*
X163461000Y-78828741D01*
X163426376Y-79002812D01*
X163358456Y-79166784D01*
X163259853Y-79314354D01*
X163134354Y-79439853D01*
X162986784Y-79538456D01*
X162822812Y-79606376D01*
X162673512Y-79636073D01*
X162648742Y-79641000D01*
X162471258Y-79641000D01*
X162446488Y-79636073D01*
X162297188Y-79606376D01*
X162133216Y-79538456D01*
X161985646Y-79439853D01*
X161860147Y-79314354D01*
X161761544Y-79166784D01*
X161693624Y-79002812D01*
X161659000Y-78828741D01*
X161659000Y-78651259D01*
X161693624Y-78477188D01*
X161761544Y-78313216D01*
X161860147Y-78165646D01*
X161985646Y-78040147D01*
X162133216Y-77941544D01*
X162297188Y-77873624D01*
X162446488Y-77843927D01*
X162471258Y-77839000D01*
X162648742Y-77839000D01*
X162673512Y-77843927D01*
G37*
G36*
X165213512Y-77843927D02*
G01*
X165362812Y-77873624D01*
X165526784Y-77941544D01*
X165674354Y-78040147D01*
X165799853Y-78165646D01*
X165898456Y-78313216D01*
X165966376Y-78477188D01*
X166001000Y-78651259D01*
X166001000Y-78828741D01*
X165966376Y-79002812D01*
X165898456Y-79166784D01*
X165799853Y-79314354D01*
X165674354Y-79439853D01*
X165526784Y-79538456D01*
X165362812Y-79606376D01*
X165213512Y-79636073D01*
X165188742Y-79641000D01*
X165011258Y-79641000D01*
X164986488Y-79636073D01*
X164837188Y-79606376D01*
X164673216Y-79538456D01*
X164525646Y-79439853D01*
X164400147Y-79314354D01*
X164301544Y-79166784D01*
X164233624Y-79002812D01*
X164199000Y-78828741D01*
X164199000Y-78651259D01*
X164233624Y-78477188D01*
X164301544Y-78313216D01*
X164400147Y-78165646D01*
X164525646Y-78040147D01*
X164673216Y-77941544D01*
X164837188Y-77873624D01*
X164986488Y-77843927D01*
X165011258Y-77839000D01*
X165188742Y-77839000D01*
X165213512Y-77843927D01*
G37*
G36*
X165213512Y-75303927D02*
G01*
X165362812Y-75333624D01*
X165526784Y-75401544D01*
X165674354Y-75500147D01*
X165799853Y-75625646D01*
X165898456Y-75773216D01*
X165966376Y-75937188D01*
X166001000Y-76111259D01*
X166001000Y-76288741D01*
X165966376Y-76462812D01*
X165898456Y-76626784D01*
X165799853Y-76774354D01*
X165674354Y-76899853D01*
X165526784Y-76998456D01*
X165362812Y-77066376D01*
X165213512Y-77096073D01*
X165188742Y-77101000D01*
X165011258Y-77101000D01*
X164986488Y-77096073D01*
X164837188Y-77066376D01*
X164673216Y-76998456D01*
X164525646Y-76899853D01*
X164400147Y-76774354D01*
X164301544Y-76626784D01*
X164233624Y-76462812D01*
X164199000Y-76288741D01*
X164199000Y-76111259D01*
X164233624Y-75937188D01*
X164301544Y-75773216D01*
X164400147Y-75625646D01*
X164525646Y-75500147D01*
X164673216Y-75401544D01*
X164837188Y-75333624D01*
X164986488Y-75303927D01*
X165011258Y-75299000D01*
X165188742Y-75299000D01*
X165213512Y-75303927D01*
G37*
G36*
X162673512Y-75303927D02*
G01*
X162822812Y-75333624D01*
X162986784Y-75401544D01*
X163134354Y-75500147D01*
X163259853Y-75625646D01*
X163358456Y-75773216D01*
X163426376Y-75937188D01*
X163461000Y-76111259D01*
X163461000Y-76288741D01*
X163426376Y-76462812D01*
X163358456Y-76626784D01*
X163259853Y-76774354D01*
X163134354Y-76899853D01*
X162986784Y-76998456D01*
X162822812Y-77066376D01*
X162673512Y-77096073D01*
X162648742Y-77101000D01*
X162471258Y-77101000D01*
X162446488Y-77096073D01*
X162297188Y-77066376D01*
X162133216Y-76998456D01*
X161985646Y-76899853D01*
X161860147Y-76774354D01*
X161761544Y-76626784D01*
X161693624Y-76462812D01*
X161659000Y-76288741D01*
X161659000Y-76111259D01*
X161693624Y-75937188D01*
X161761544Y-75773216D01*
X161860147Y-75625646D01*
X161985646Y-75500147D01*
X162133216Y-75401544D01*
X162297188Y-75333624D01*
X162446488Y-75303927D01*
X162471258Y-75299000D01*
X162648742Y-75299000D01*
X162673512Y-75303927D01*
G37*
G36*
X135495512Y-75176927D02*
G01*
X135644812Y-75206624D01*
X135808784Y-75274544D01*
X135956354Y-75373147D01*
X136081853Y-75498646D01*
X136180456Y-75646216D01*
X136248376Y-75810188D01*
X136283000Y-75984259D01*
X136283000Y-76161741D01*
X136248376Y-76335812D01*
X136180456Y-76499784D01*
X136081853Y-76647354D01*
X135956354Y-76772853D01*
X135808784Y-76871456D01*
X135644812Y-76939376D01*
X135495512Y-76969073D01*
X135470742Y-76974000D01*
X135293258Y-76974000D01*
X135268488Y-76969073D01*
X135119188Y-76939376D01*
X134955216Y-76871456D01*
X134807646Y-76772853D01*
X134682147Y-76647354D01*
X134583544Y-76499784D01*
X134515624Y-76335812D01*
X134481000Y-76161741D01*
X134481000Y-75984259D01*
X134515624Y-75810188D01*
X134583544Y-75646216D01*
X134682147Y-75498646D01*
X134807646Y-75373147D01*
X134955216Y-75274544D01*
X135119188Y-75206624D01*
X135268488Y-75176927D01*
X135293258Y-75172000D01*
X135470742Y-75172000D01*
X135495512Y-75176927D01*
G37*
G36*
X165213512Y-72763927D02*
G01*
X165362812Y-72793624D01*
X165526784Y-72861544D01*
X165674354Y-72960147D01*
X165799853Y-73085646D01*
X165898456Y-73233216D01*
X165966376Y-73397188D01*
X166001000Y-73571259D01*
X166001000Y-73748741D01*
X165966376Y-73922812D01*
X165898456Y-74086784D01*
X165799853Y-74234354D01*
X165674354Y-74359853D01*
X165526784Y-74458456D01*
X165362812Y-74526376D01*
X165213512Y-74556073D01*
X165188742Y-74561000D01*
X165011258Y-74561000D01*
X164986488Y-74556073D01*
X164837188Y-74526376D01*
X164673216Y-74458456D01*
X164525646Y-74359853D01*
X164400147Y-74234354D01*
X164301544Y-74086784D01*
X164233624Y-73922812D01*
X164199000Y-73748741D01*
X164199000Y-73571259D01*
X164233624Y-73397188D01*
X164301544Y-73233216D01*
X164400147Y-73085646D01*
X164525646Y-72960147D01*
X164673216Y-72861544D01*
X164837188Y-72793624D01*
X164986488Y-72763927D01*
X165011258Y-72759000D01*
X165188742Y-72759000D01*
X165213512Y-72763927D01*
G37*
G36*
X162673512Y-72763927D02*
G01*
X162822812Y-72793624D01*
X162986784Y-72861544D01*
X163134354Y-72960147D01*
X163259853Y-73085646D01*
X163358456Y-73233216D01*
X163426376Y-73397188D01*
X163461000Y-73571259D01*
X163461000Y-73748741D01*
X163426376Y-73922812D01*
X163358456Y-74086784D01*
X163259853Y-74234354D01*
X163134354Y-74359853D01*
X162986784Y-74458456D01*
X162822812Y-74526376D01*
X162673512Y-74556073D01*
X162648742Y-74561000D01*
X162471258Y-74561000D01*
X162446488Y-74556073D01*
X162297188Y-74526376D01*
X162133216Y-74458456D01*
X161985646Y-74359853D01*
X161860147Y-74234354D01*
X161761544Y-74086784D01*
X161693624Y-73922812D01*
X161659000Y-73748741D01*
X161659000Y-73571259D01*
X161693624Y-73397188D01*
X161761544Y-73233216D01*
X161860147Y-73085646D01*
X161985646Y-72960147D01*
X162133216Y-72861544D01*
X162297188Y-72793624D01*
X162446488Y-72763927D01*
X162471258Y-72759000D01*
X162648742Y-72759000D01*
X162673512Y-72763927D01*
G37*
G36*
X136283000Y-74434000D02*
G01*
X134481000Y-74434000D01*
X134481000Y-72632000D01*
X136283000Y-72632000D01*
X136283000Y-74434000D01*
G37*
G36*
X124657114Y-72031611D02*
G01*
X124756265Y-72061688D01*
X124847644Y-72110531D01*
X124927738Y-72176262D01*
X124993469Y-72256356D01*
X125042312Y-72347735D01*
X125072389Y-72446886D01*
X125082545Y-72550000D01*
X125072389Y-72653114D01*
X125042312Y-72752265D01*
X124993469Y-72843644D01*
X124927738Y-72923738D01*
X124847644Y-72989469D01*
X124756265Y-73038312D01*
X124657114Y-73068389D01*
X124579839Y-73076000D01*
X124228161Y-73076000D01*
X124150886Y-73068389D01*
X124051735Y-73038312D01*
X123960356Y-72989469D01*
X123880262Y-72923738D01*
X123814531Y-72843644D01*
X123765688Y-72752265D01*
X123735611Y-72653114D01*
X123725455Y-72550000D01*
X123735611Y-72446886D01*
X123765688Y-72347735D01*
X123814531Y-72256356D01*
X123880262Y-72176262D01*
X123960356Y-72110531D01*
X124051735Y-72061688D01*
X124150886Y-72031611D01*
X124228161Y-72024000D01*
X124579839Y-72024000D01*
X124657114Y-72031611D01*
G37*
G36*
X119657114Y-72031611D02*
G01*
X119756265Y-72061688D01*
X119847644Y-72110531D01*
X119927738Y-72176262D01*
X119993469Y-72256356D01*
X120042312Y-72347735D01*
X120072389Y-72446886D01*
X120082545Y-72550000D01*
X120072389Y-72653114D01*
X120042312Y-72752265D01*
X119993469Y-72843644D01*
X119927738Y-72923738D01*
X119847644Y-72989469D01*
X119756265Y-73038312D01*
X119657114Y-73068389D01*
X119579839Y-73076000D01*
X119228161Y-73076000D01*
X119150886Y-73068389D01*
X119051735Y-73038312D01*
X118960356Y-72989469D01*
X118880262Y-72923738D01*
X118814531Y-72843644D01*
X118765688Y-72752265D01*
X118735611Y-72653114D01*
X118725455Y-72550000D01*
X118735611Y-72446886D01*
X118765688Y-72347735D01*
X118814531Y-72256356D01*
X118880262Y-72176262D01*
X118960356Y-72110531D01*
X119051735Y-72061688D01*
X119150886Y-72031611D01*
X119228161Y-72024000D01*
X119579839Y-72024000D01*
X119657114Y-72031611D01*
G37*
G36*
X118502213Y-69031249D02*
G01*
X118596652Y-69059897D01*
X118683687Y-69106418D01*
X118759975Y-69169025D01*
X118822582Y-69245313D01*
X118869103Y-69332348D01*
X118897751Y-69426787D01*
X118905000Y-69500388D01*
X118905000Y-70199612D01*
X118897751Y-70273213D01*
X118869103Y-70367652D01*
X118822582Y-70454687D01*
X118759975Y-70530975D01*
X118683687Y-70593582D01*
X118596651Y-70640103D01*
X118502212Y-70668751D01*
X118404000Y-70678424D01*
X118305787Y-70668751D01*
X118211348Y-70640103D01*
X118124313Y-70593582D01*
X118048025Y-70530975D01*
X117985418Y-70454687D01*
X117938897Y-70367651D01*
X117910249Y-70273212D01*
X117903000Y-70199611D01*
X117903000Y-69500398D01*
X117910250Y-69426789D01*
X117910250Y-69426787D01*
X117938898Y-69332348D01*
X117985419Y-69245313D01*
X118048026Y-69169025D01*
X118124314Y-69106418D01*
X118211349Y-69059897D01*
X118305788Y-69031249D01*
X118404000Y-69021576D01*
X118502213Y-69031249D01*
G37*
G36*
X125502213Y-69031249D02*
G01*
X125596652Y-69059897D01*
X125683687Y-69106418D01*
X125759975Y-69169025D01*
X125822582Y-69245313D01*
X125869103Y-69332348D01*
X125897751Y-69426787D01*
X125905000Y-69500388D01*
X125905000Y-70199612D01*
X125897751Y-70273213D01*
X125869103Y-70367652D01*
X125822582Y-70454687D01*
X125759975Y-70530975D01*
X125683687Y-70593582D01*
X125596651Y-70640103D01*
X125502212Y-70668751D01*
X125404000Y-70678424D01*
X125305787Y-70668751D01*
X125211348Y-70640103D01*
X125124313Y-70593582D01*
X125048025Y-70530975D01*
X124985418Y-70454687D01*
X124938897Y-70367651D01*
X124910249Y-70273212D01*
X124903000Y-70199611D01*
X124903000Y-69500398D01*
X124910250Y-69426789D01*
X124910250Y-69426787D01*
X124938898Y-69332348D01*
X124985419Y-69245313D01*
X125048026Y-69169025D01*
X125124314Y-69106418D01*
X125211349Y-69059897D01*
X125305788Y-69031249D01*
X125404000Y-69021576D01*
X125502213Y-69031249D01*
G37*
M02*
