M48
; DRILL file {KiCad 5.1.5+dfsg1-2build2} date Fr 27 Jan 2023 18:55:10 CET
; FORMAT={-:-/ absolute / inch / decimal}
; #@! TF.CreationDate,2023-01-27T18:55:10+01:00
; #@! TF.GenerationSoftware,Kicad,Pcbnew,5.1.5+dfsg1-2build2
; #@! TF.FileFunction,Plated,1,2,PTH
FMAT,2
INCH
T1C0.0157
T2C0.0197
T3C0.0217
T4C0.0287
T5C0.0394
%
G90
G05
T1
X4.38Y-5.66
X4.4Y-2.9
X4.4Y-3.7
X4.45Y-2.9
X4.45Y-3.7
X4.45Y-4.25
X4.45Y-4.35
X4.45Y-4.45
X4.45Y-4.55
X4.45Y-4.65
X4.45Y-4.75
X4.45Y-4.85
X4.45Y-4.95
X4.45Y-5.05
X4.45Y-5.15
X4.525Y-3.125
X4.525Y-3.46
X4.53Y-4.35
X4.585Y-2.69
X4.6Y-3.575
X4.6Y-3.7
X4.6Y-5.61
X4.65Y-3.9
X4.65Y-4.0
X4.65Y-4.075
X4.65Y-5.18
X4.66Y-3.46
X4.7Y-3.7
X4.74Y-2.92
X4.75Y-4.13
X4.76Y-5.47
X4.76Y-5.66
X4.783Y-3.016
X4.783Y-3.088
X4.783Y-3.164
X4.79Y-4.48
X4.79Y-5.06
X4.7909Y-4.7991
X4.8Y-3.7
X4.8Y-3.8
X4.8Y-5.47
X4.8015Y-5.6593
X4.815Y-4.075
X4.82Y-4.57
X4.82Y-4.67
X4.83Y-3.155
X4.85Y-4.5
X4.86Y-2.92
X4.89Y-5.61
X4.9Y-4.1
X4.9Y-5.0
X4.91Y-4.68
X4.91Y-4.72
X4.91Y-4.76
X4.95Y-3.4
X4.9775Y-4.6475
X4.9775Y-4.7825
X4.99Y-3.06
X4.99Y-3.125
X5.0Y-4.1
X5.0Y-4.2
X5.0Y-4.3
X5.0Y-5.0
X5.01Y-4.45
X5.01Y-4.57
X5.03Y-4.84
X5.055Y-4.57
X5.07Y-5.61
X5.08Y-2.69
X5.1Y-3.98
X5.1Y-5.0
X5.1Y-5.2
X5.1Y-5.3
X5.1Y-5.4
X5.1Y-5.5
X5.1125Y-4.6475
X5.1125Y-4.7825
X5.115Y-4.45
X5.115Y-4.57
X5.16Y-4.39
X5.16Y-4.57
X5.17Y-2.69
X5.17Y-3.04
X5.17Y-3.15
X5.17Y-3.27
X5.17Y-3.4
X5.17Y-3.48
X5.17Y-4.68
X5.17Y-4.72
X5.17Y-4.76
X5.189Y-4.291
X5.2Y-3.93
X5.2Y-4.1
X5.2Y-5.2
X5.2Y-5.3
X5.2Y-5.4
X5.2Y-5.5
X5.23Y-4.17
X5.23Y-4.39
X5.2595Y-4.9705
X5.26Y-5.03
X5.29Y-4.17
X5.3Y-4.1
X5.3Y-4.39
X5.3Y-4.45
X5.3Y-5.2
X5.3Y-5.3
X5.3Y-5.4
X5.3Y-5.5
X5.31Y-4.7
X5.31Y-4.76
X5.31Y-4.82
X5.32Y-4.97
X5.32Y-5.03
X5.35Y-4.39
X5.35Y-4.45
X5.36Y-3.93
X5.38Y-3.19
X5.38Y-5.03
X5.3994Y-4.4506
X5.4Y-4.39
X5.4Y-5.2
X5.4Y-5.3
X5.4Y-5.4
X5.4Y-5.5
X5.4075Y-4.605
X5.4075Y-4.67
X5.4075Y-4.73
X5.415Y-5.8
X5.42Y-2.69
X5.446Y-4.3896
X5.47Y-4.17
X5.48Y-4.555
X5.48Y-4.735
X5.5Y-4.1
X5.5Y-5.2
X5.55Y-2.85
X5.55Y-2.99
X5.55Y-4.17
X5.555Y-4.39
X5.56Y-4.58
X5.56Y-4.71
X5.58Y-3.36
X5.58Y-3.44
X5.58Y-3.52
X5.6Y-4.1
X5.6Y-4.39
X5.6Y-5.2
X5.62Y-3.29
X5.62Y-4.97
X5.62Y-5.03
X5.635Y-4.17
X5.645Y-4.39
X5.66Y-2.69
X5.675Y-3.885
X5.68Y-5.03
X5.7Y-3.22
X5.7Y-4.73
X5.7Y-5.2
X5.7Y-5.3
X5.7394Y-4.73
X5.75Y-2.85
X5.765Y-5.095
X5.7675Y-3.4325
X5.78Y-3.65
X5.8Y-3.9
X5.8Y-4.0
X5.8Y-4.1
X5.8Y-5.7
X5.81Y-2.85
X5.81Y-2.91
X5.81Y-4.8225
X5.83Y-4.6854
X5.85Y-5.85
X5.88Y-3.29
X5.89Y-3.65
X5.9Y-2.69
X5.9Y-3.9
X5.9Y-4.0
X5.9Y-4.1
X5.9Y-4.2
X5.9Y-4.3
X5.9Y-5.7
X5.91Y-3.19
X5.92Y-5.02
X5.92Y-5.19
X5.97Y-4.825
X5.975Y-3.16
X5.975Y-3.34
X5.99Y-3.65
X6.0Y-3.9
X6.0Y-4.0
X6.0Y-4.1
X6.0Y-4.2
X6.0Y-4.3
X6.005Y-4.605
X6.01Y-3.45
X6.02Y-2.8
X6.03Y-3.19
X6.06Y-3.29
X6.06Y-4.3
X6.08Y-2.8
X6.1Y-3.9
X6.1Y-4.0
X6.1Y-4.1
X6.1Y-4.2
X6.1Y-4.8
X6.1Y-5.1
X6.11Y-2.91
X6.11Y-3.53
X6.13Y-4.605
X6.135Y-4.3
X6.14Y-2.69
X6.14Y-2.8
X6.15Y-5.75
X6.17Y-2.91
X6.17Y-3.65
X6.1922Y-4.3022
X6.2Y-2.8
X6.2Y-3.9
X6.2Y-4.0
X6.2Y-4.1
X6.2Y-5.3
X6.2Y-5.61
X6.22Y-4.4
X6.22Y-4.5
X6.22Y-4.7
X6.28Y-2.8
X6.28Y-2.85
X6.28Y-2.91
X6.28Y-3.45
X6.28Y-3.56
X6.3Y-5.3
X6.36Y-4.0
X6.36Y-5.61
X6.4Y-5.61
X6.415Y-3.845
X6.42Y-4.04
X6.44Y-5.61
X6.46Y-4.25
X6.462Y-4.55
X6.464Y-5.142
X6.5Y-4.35
X6.5Y-4.75
X6.5Y-4.85
X6.5Y-4.95
X6.5Y-5.05
X6.56Y-4.25
X6.56Y-4.35
X6.56Y-4.45
X6.56Y-4.55
X6.56Y-4.6
X6.6Y-2.95
X6.6Y-3.05
X6.6Y-3.15
X6.6Y-3.25
X6.6Y-3.35
X6.6Y-3.45
X6.6Y-3.55
X6.6Y-3.65
X6.62Y-5.19
X6.62Y-5.5
X6.62Y-5.73
T4
X5.005Y-3.235
X5.0837Y-3.235
T5
X6.4Y-2.9
X6.4Y-3.0
X6.4Y-3.1
X6.4Y-3.2
X6.4Y-3.3
X6.4Y-3.4
X6.4Y-3.5
X6.4Y-3.6
X6.5Y-2.9
X6.5Y-3.0
X6.5Y-3.1
X6.5Y-3.2
X6.5Y-3.3
X6.5Y-3.4
X6.5Y-3.5
X6.5Y-3.6
X5.495Y-3.21
X5.595Y-3.21
X6.4Y-5.3
X6.4Y-5.4
X6.4Y-5.5
X6.3Y-4.2
X6.3Y-4.3
X6.3Y-4.4
X6.3Y-4.5
X6.3Y-4.6
X6.3Y-4.7
X6.3Y-4.8
X6.3Y-4.9
X6.3Y-5.0
X6.3Y-5.1
X6.4Y-4.2
X6.4Y-4.3
X6.4Y-4.4
X6.4Y-4.5
X6.4Y-4.6
X6.4Y-4.7
X6.4Y-4.8
X6.4Y-4.9
X6.4Y-5.0
X6.4Y-5.1
X4.9Y-3.7
X4.9Y-3.8
X5.0Y-3.7
X5.0Y-3.8
X5.1Y-3.7
X5.1Y-3.8
X5.2Y-3.7
X5.2Y-3.8
X5.3Y-3.7
X5.3Y-3.8
X5.4Y-3.7
X5.4Y-3.8
X5.5Y-3.7
X5.5Y-3.8
X5.6Y-3.7
X5.6Y-3.8
X4.9Y-5.3
X5.0Y-5.3
X5.33Y-2.895
X5.33Y-2.995
X4.6Y-5.3
X4.6Y-5.4
X4.6Y-5.5
X4.6Y-4.2
X4.6Y-4.3
X4.6Y-4.4
X4.6Y-4.5
X4.6Y-4.6
X4.6Y-4.7
X4.6Y-4.8
X4.6Y-4.9
X4.6Y-5.0
X4.6Y-5.1
X4.7Y-4.2
X4.7Y-4.3
X4.7Y-4.4
X4.7Y-4.5
X4.7Y-4.6
X4.7Y-4.7
X4.7Y-4.8
X4.7Y-4.9
X4.7Y-5.0
X4.7Y-5.1
X5.5Y-5.8
X5.5Y-5.9
X5.6Y-5.8
X5.6Y-5.9
X5.7Y-5.8
X5.7Y-5.9
X5.8Y-5.8
X5.8Y-5.9
X5.9Y-5.8
X5.9Y-5.9
X6.0Y-5.8
X6.0Y-5.9
X6.1Y-5.8
X6.1Y-5.9
X6.2Y-5.8
X6.2Y-5.9
X6.3Y-5.8
X6.3Y-5.9
X6.4Y-5.8
X6.4Y-5.9
T2
G00X4.661Y-5.8385
M15
G01X4.661Y-5.8641
M16
G05
G00X4.9366Y-5.8385
M15
G01X4.9366Y-5.8641
M16
G05
G00X4.6616Y-2.7628
M15
G01X4.6616Y-2.7372
M16
G05
G00X4.9372Y-2.7628
M15
G01X4.9372Y-2.7372
M16
G05
T3
G00X4.6945Y-5.745
M15
G01X4.7063Y-5.745
M16
G05
G00X4.8913Y-5.745
M15
G01X4.9031Y-5.745
M16
G05
G00X4.7069Y-2.8563
M15
G01X4.695Y-2.8563
M16
G05
G00X4.9037Y-2.8563
M15
G01X4.8919Y-2.8563
M16
G05
T0
M30
